<svg width="147" height="36" viewBox="0 0 147 36" fill="none" xmlns="http://www.w3.org/2000/svg">
<g clip-path="url(#clip0_667_166)">
<path d="M41.2895 18.25C41.6007 14.6549 43.6755 12.6458 46.7877 12.6458C49.8999 12.6458 51.9747 14.7606 52.2859 18.25C52.1822 18.3558 41.2895 18.3558 41.2895 18.25ZM58.8216 26.0748C55.0869 28.824 52.5972 29.7757 49.4849 29.7757C44.5054 29.7757 41.3932 27.1322 41.1857 22.4796H59.3403C59.7552 13.0687 53.6346 7.78174 46.269 7.78174C38.4885 7.78174 32.9902 13.386 32.9902 21.2107C32.9902 29.247 38.696 34.534 47.6176 34.534C49.5887 34.534 54.3607 34.534 58.9253 31.1503C58.8216 31.1503 58.8216 26.0748 58.8216 26.0748Z" fill="#013D80"/>
<path d="M81.125 13.9147H71.8921V24.4887C71.8921 27.0264 73.3445 28.6125 75.8343 28.6125C77.4941 28.6125 79.0502 28.1896 81.125 27.1322V32.9479C78.324 34.111 76.2492 34.534 73.7594 34.534C68.4687 34.534 64.0079 32.102 64.0079 24.9116V13.9147H60.377V12.3286L70.9585 0.27417H71.8921V8.41616H81.125V13.9147Z" fill="#013D80"/>
<path d="M99.5914 27.8723C98.2428 29.1412 96.6867 29.7757 95.2343 29.7757C93.7819 29.7757 92.6408 28.5068 92.6408 27.0264C92.6408 24.4887 94.9231 23.3255 99.5914 21.6337V27.8723ZM111.833 27.7666C109.965 29.1412 109.343 29.247 108.824 29.247C107.994 29.247 107.476 28.7183 107.476 27.4494V15.7122C107.476 10.108 103.119 7.88745 96.7904 7.88745C92.7445 7.88745 89.1136 8.94485 85.7939 11.0597V17.6155C88.2837 14.972 91.9146 13.2802 95.1306 13.2802C98.554 13.2802 99.6951 15.1835 99.4877 17.6155C88.9061 20.9992 84.4453 22.1624 84.4453 28.2953C84.4453 31.5733 87.4538 34.6397 91.4996 34.6397C94.1969 34.6397 96.7904 33.8995 99.7989 31.679C100.318 33.6881 101.562 34.6397 104.26 34.6397C106.438 34.6397 109.55 33.6881 111.729 32.3134L111.833 27.7666Z" fill="#013D80"/>
<path d="M136.419 32.8422C133.203 34.0053 130.61 34.534 127.913 34.534C118.991 34.534 113.285 29.247 113.285 21.2107C113.285 13.386 119.302 7.78174 127.601 7.78174C130.195 7.78174 133.515 8.41618 136.108 9.47358V15.5008C134.033 14.3376 131.647 13.8089 129.676 13.8089C124.904 13.8089 121.792 16.6639 121.792 21.2107C121.792 25.7576 124.8 28.824 129.365 28.824C131.336 28.824 132.996 28.4011 136.523 27.0265V32.8422H136.419Z" fill="#013D80"/>
<path d="M142.746 10.531V9.4736H143.472C143.991 9.4736 144.198 9.68508 144.198 10.0023C144.198 10.3195 143.991 10.531 143.576 10.531H142.746ZM145.236 12.6458L144.821 11.9056C144.406 11.2712 144.406 11.1654 143.991 11.0597C144.613 10.954 145.028 10.531 145.028 10.0023C145.028 9.36786 144.613 8.94489 143.887 8.94489H142.02V12.6458H142.746V11.0597H142.85C143.161 11.0597 143.265 11.0597 143.472 11.2712C143.576 11.3769 143.887 11.7999 143.991 12.0114L144.302 12.6458H145.236ZM143.576 7.99323C145.132 7.99323 146.377 9.26212 146.377 10.8482C146.377 12.4343 145.132 13.7032 143.576 13.7032C142.02 13.7032 140.775 12.4343 140.775 10.8482C140.775 9.26212 142.02 7.99323 143.576 7.99323ZM143.576 7.25305C141.605 7.25305 140.152 8.83915 140.152 10.7425C140.152 12.6458 141.708 14.2319 143.576 14.2319C145.443 14.2319 146.999 12.6458 146.999 10.7425C146.999 8.83915 145.443 7.25305 143.576 7.25305Z" fill="#013D80"/>
<path d="M9.02541 21.4222C9.02541 15.395 12.8638 10.2137 18.1546 8.3104C16.7022 7.7817 15.2498 7.46448 13.59 7.46448C6.12068 7.46448 0 13.7031 0 21.3164C0 29.0355 6.12068 35.2741 13.6937 35.2741C15.2498 35.2741 16.8059 34.9569 18.2583 34.4282C12.8638 32.6306 9.02541 27.4494 9.02541 21.4222Z" fill="#013D80"/>
<path d="M11.6189 21.3164C11.6189 27.1321 16.1835 31.7847 21.8892 31.7847C22.2004 31.7847 22.4079 31.7847 22.7191 31.7847C25.5201 29.2469 27.2837 25.546 27.2837 21.4222C27.2837 17.2983 25.5201 13.4916 22.6154 10.9539C22.3041 10.9539 22.0967 10.9539 21.7854 10.9539C16.1835 10.8481 11.6189 15.6064 11.6189 21.3164ZM23.549 21.4222C23.549 23.6427 21.7854 25.4403 19.6069 25.4403C17.4284 25.4403 15.6648 23.6427 15.6648 21.4222C15.6648 19.2016 17.4284 17.404 19.6069 17.404C21.7854 17.404 23.549 19.2016 23.549 21.4222Z" fill="#013D80"/>
</g>
<defs>
<clipPath id="clip0_667_166">
<rect width="147" height="35" fill="white" transform="translate(0 0.27417)"/>
</clipPath>
</defs>
</svg>
