<svg width="1440" height="46" viewBox="0 0 1440 46" fill="none" xmlns="http://www.w3.org/2000/svg">
<rect opacity="0.7" width="1440" height="46" fill="#013369"/>
<path d="M136.885 28V17.8182H140.902C141.671 17.8182 142.327 17.9557 142.871 18.2308C143.418 18.5026 143.834 18.8887 144.119 19.3892C144.407 19.8864 144.551 20.4714 144.551 21.1442C144.551 21.8203 144.405 22.402 144.114 22.8892C143.822 23.3731 143.399 23.7443 142.846 24.0028C142.296 24.2614 141.629 24.3906 140.847 24.3906H138.158V22.6605H140.499C140.91 22.6605 141.252 22.6042 141.523 22.4915C141.795 22.3788 141.997 22.2098 142.13 21.9844C142.266 21.759 142.334 21.4789 142.334 21.1442C142.334 20.8061 142.266 20.5211 142.13 20.2891C141.997 20.0571 141.794 19.8814 141.518 19.7621C141.247 19.6394 140.904 19.5781 140.489 19.5781H139.038V28H136.885ZM142.384 23.3665L144.914 28H142.538L140.062 23.3665H142.384ZM149.39 28.1491C148.604 28.1491 147.928 27.9901 147.361 27.6719C146.798 27.3504 146.364 26.8963 146.059 26.3097C145.754 25.7197 145.601 25.022 145.601 24.2166C145.601 23.4311 145.754 22.7417 146.059 22.1484C146.364 21.5552 146.793 21.0928 147.346 20.7614C147.903 20.4299 148.556 20.2642 149.305 20.2642C149.809 20.2642 150.278 20.3454 150.712 20.5078C151.15 20.6669 151.531 20.9072 151.856 21.2287C152.184 21.5502 152.439 21.9545 152.621 22.4418C152.804 22.9257 152.895 23.4924 152.895 24.142V24.7237H146.447V23.4112H150.901C150.901 23.1063 150.835 22.8362 150.702 22.6009C150.57 22.3655 150.386 22.1816 150.15 22.049C149.918 21.9131 149.648 21.8452 149.34 21.8452C149.019 21.8452 148.733 21.9197 148.485 22.0689C148.24 22.2147 148.047 22.4119 147.908 22.6605C147.769 22.9058 147.698 23.1792 147.694 23.4808V24.7287C147.694 25.1065 147.764 25.433 147.903 25.7081C148.046 25.9832 148.246 26.1953 148.505 26.3445C148.763 26.4936 149.07 26.5682 149.425 26.5682C149.66 26.5682 149.875 26.535 150.071 26.4688C150.266 26.4025 150.434 26.303 150.573 26.1705C150.712 26.0379 150.818 25.8755 150.891 25.6832L152.85 25.8125C152.751 26.2831 152.547 26.6941 152.238 27.0455C151.934 27.3935 151.539 27.6652 151.055 27.8608C150.575 28.053 150.019 28.1491 149.39 28.1491ZM157.717 31.0227C157.031 31.0227 156.443 30.9283 155.952 30.7393C155.465 30.5537 155.077 30.3002 154.789 29.9787C154.501 29.6572 154.313 29.2959 154.227 28.8949L156.186 28.6314C156.246 28.7839 156.34 28.9264 156.469 29.0589C156.599 29.1915 156.769 29.2976 156.981 29.3771C157.197 29.46 157.459 29.5014 157.767 29.5014C158.228 29.5014 158.607 29.3887 158.905 29.1634C159.207 28.9413 159.358 28.5684 159.358 28.0447V26.6477H159.268C159.175 26.8598 159.036 27.0604 158.851 27.2493C158.665 27.4382 158.426 27.5923 158.135 27.7116C157.843 27.831 157.495 27.8906 157.091 27.8906C156.517 27.8906 155.995 27.758 155.525 27.4929C155.057 27.2244 154.684 26.8151 154.406 26.2649C154.131 25.7114 153.993 25.0121 153.993 24.1669C153.993 23.3018 154.134 22.5793 154.416 21.9993C154.698 21.4193 155.072 20.9851 155.54 20.6967C156.01 20.4084 156.526 20.2642 157.086 20.2642C157.513 20.2642 157.871 20.3371 158.16 20.483C158.448 20.6255 158.68 20.8045 158.856 21.0199C159.035 21.232 159.172 21.4408 159.268 21.6463H159.348V20.3636H161.451V28.0746C161.451 28.7242 161.292 29.2678 160.974 29.7053C160.655 30.1428 160.215 30.4709 159.651 30.6896C159.091 30.9117 158.446 31.0227 157.717 31.0227ZM157.762 26.2997C158.103 26.2997 158.392 26.2152 158.627 26.0462C158.866 25.8738 159.048 25.6286 159.174 25.3104C159.303 24.9889 159.368 24.6044 159.368 24.157C159.368 23.7095 159.305 23.3217 159.179 22.9936C159.053 22.6622 158.871 22.4053 158.632 22.223C158.393 22.0407 158.103 21.9496 157.762 21.9496C157.414 21.9496 157.121 22.044 156.882 22.233C156.643 22.4186 156.463 22.6771 156.34 23.0085C156.217 23.34 156.156 23.7228 156.156 24.157C156.156 24.5978 156.217 24.9789 156.34 25.3004C156.466 25.6186 156.647 25.8655 156.882 26.0412C157.121 26.2135 157.414 26.2997 157.762 26.2997ZM163.136 28V20.3636H165.254V28H163.136ZM164.2 19.3793C163.885 19.3793 163.615 19.2749 163.39 19.0661C163.168 18.8539 163.057 18.6004 163.057 18.3054C163.057 18.0137 163.168 17.7635 163.39 17.5547C163.615 17.3426 163.885 17.2365 164.2 17.2365C164.515 17.2365 164.783 17.3426 165.006 17.5547C165.231 17.7635 165.344 18.0137 165.344 18.3054C165.344 18.6004 165.231 18.8539 165.006 19.0661C164.783 19.2749 164.515 19.3793 164.2 19.3793ZM173.304 22.5412L171.365 22.6605C171.332 22.4948 171.261 22.3456 171.152 22.2131C171.042 22.0772 170.898 21.9695 170.719 21.8899C170.543 21.8071 170.333 21.7656 170.088 21.7656C169.76 21.7656 169.483 21.8352 169.257 21.9744C169.032 22.1103 168.919 22.2926 168.919 22.5213C168.919 22.7036 168.992 22.8577 169.138 22.9837C169.284 23.1096 169.534 23.2107 169.889 23.2869L171.271 23.5653C172.013 23.7178 172.567 23.9631 172.931 24.3011C173.296 24.6392 173.478 25.0833 173.478 25.6335C173.478 26.134 173.331 26.5732 173.036 26.951C172.744 27.3288 172.343 27.6238 171.833 27.8359C171.326 28.0447 170.741 28.1491 170.078 28.1491C169.067 28.1491 168.261 27.9387 167.662 27.5178C167.065 27.0935 166.715 26.5168 166.613 25.7876L168.696 25.6783C168.759 25.9865 168.911 26.2218 169.153 26.3842C169.395 26.5433 169.705 26.6229 170.083 26.6229C170.454 26.6229 170.752 26.5516 170.978 26.4091C171.206 26.2633 171.322 26.076 171.326 25.8473C171.322 25.6551 171.241 25.4976 171.082 25.375C170.923 25.2491 170.678 25.1529 170.346 25.0866L169.024 24.8232C168.278 24.674 167.723 24.4155 167.358 24.0476C166.997 23.6797 166.816 23.2107 166.816 22.6406C166.816 22.1501 166.949 21.7275 167.214 21.3729C167.483 21.0182 167.859 20.7448 168.343 20.5526C168.83 20.3603 169.4 20.2642 170.053 20.2642C171.017 20.2642 171.776 20.468 172.33 20.8757C172.887 21.2834 173.212 21.8385 173.304 22.5412ZM178.874 20.3636V21.9545H174.275V20.3636H178.874ZM175.319 18.5341H177.437V25.6534C177.437 25.849 177.467 26.0014 177.526 26.1108C177.586 26.2169 177.669 26.2914 177.775 26.3345C177.884 26.3776 178.01 26.3991 178.153 26.3991C178.252 26.3991 178.352 26.3909 178.451 26.3743C178.551 26.3544 178.627 26.3395 178.68 26.3295L179.013 27.9055C178.907 27.9387 178.758 27.9768 178.566 28.0199C178.373 28.0663 178.14 28.0945 177.865 28.1044C177.354 28.1243 176.907 28.0563 176.522 27.9006C176.141 27.7448 175.844 27.5028 175.632 27.1747C175.42 26.8466 175.316 26.4323 175.319 25.9318V18.5341ZM183.651 28.1491C182.866 28.1491 182.19 27.9901 181.623 27.6719C181.06 27.3504 180.625 26.8963 180.32 26.3097C180.016 25.7197 179.863 25.022 179.863 24.2166C179.863 23.4311 180.016 22.7417 180.32 22.1484C180.625 21.5552 181.055 21.0928 181.608 20.7614C182.165 20.4299 182.818 20.2642 183.567 20.2642C184.071 20.2642 184.54 20.3454 184.974 20.5078C185.411 20.6669 185.793 20.9072 186.117 21.2287C186.445 21.5502 186.701 21.9545 186.883 22.4418C187.065 22.9257 187.156 23.4924 187.156 24.142V24.7237H180.708V23.4112H185.163C185.163 23.1063 185.097 22.8362 184.964 22.6009C184.831 22.3655 184.647 22.1816 184.412 22.049C184.18 21.9131 183.91 21.8452 183.602 21.8452C183.28 21.8452 182.995 21.9197 182.747 22.0689C182.501 22.2147 182.309 22.4119 182.17 22.6605C182.031 22.9058 181.959 23.1792 181.956 23.4808V24.7287C181.956 25.1065 182.026 25.433 182.165 25.7081C182.307 25.9832 182.508 26.1953 182.767 26.3445C183.025 26.4936 183.332 26.5682 183.686 26.5682C183.922 26.5682 184.137 26.535 184.333 26.4688C184.528 26.4025 184.695 26.303 184.835 26.1705C184.974 26.0379 185.08 25.8755 185.153 25.6832L187.112 25.8125C187.012 26.2831 186.808 26.6941 186.5 27.0455C186.195 27.3935 185.801 27.6652 185.317 27.8608C184.836 28.053 184.281 28.1491 183.651 28.1491ZM188.539 28V20.3636H190.592V21.696H190.671C190.811 21.2221 191.044 20.8641 191.372 20.6222C191.7 20.3769 192.078 20.2543 192.506 20.2543C192.612 20.2543 192.726 20.2609 192.849 20.2741C192.972 20.2874 193.079 20.3056 193.172 20.3288V22.2081C193.073 22.1783 192.935 22.1518 192.759 22.1286C192.584 22.1054 192.423 22.0938 192.277 22.0938C191.966 22.0938 191.687 22.1617 191.442 22.2976C191.2 22.4302 191.008 22.6158 190.865 22.8544C190.726 23.093 190.656 23.3681 190.656 23.6797V28H188.539ZM197.392 28.1491C196.606 28.1491 195.93 27.9901 195.363 27.6719C194.8 27.3504 194.366 26.8963 194.061 26.3097C193.756 25.7197 193.603 25.022 193.603 24.2166C193.603 23.4311 193.756 22.7417 194.061 22.1484C194.366 21.5552 194.795 21.0928 195.348 20.7614C195.905 20.4299 196.558 20.2642 197.307 20.2642C197.811 20.2642 198.28 20.3454 198.714 20.5078C199.152 20.6669 199.533 20.9072 199.858 21.2287C200.186 21.5502 200.441 21.9545 200.623 22.4418C200.806 22.9257 200.897 23.4924 200.897 24.142V24.7237H194.449V23.4112H198.903C198.903 23.1063 198.837 22.8362 198.704 22.6009C198.572 22.3655 198.388 22.1816 198.152 22.049C197.92 21.9131 197.65 21.8452 197.342 21.8452C197.02 21.8452 196.735 21.9197 196.487 22.0689C196.242 22.2147 196.049 22.4119 195.91 22.6605C195.771 22.9058 195.7 23.1792 195.696 23.4808V24.7287C195.696 25.1065 195.766 25.433 195.905 25.7081C196.048 25.9832 196.248 26.1953 196.507 26.3445C196.765 26.4936 197.072 26.5682 197.426 26.5682C197.662 26.5682 197.877 26.535 198.073 26.4688C198.268 26.4025 198.436 26.303 198.575 26.1705C198.714 26.0379 198.82 25.8755 198.893 25.6832L200.852 25.8125C200.752 26.2831 200.549 26.6941 200.24 27.0455C199.935 27.3935 199.541 27.6652 199.057 27.8608C198.577 28.053 198.021 28.1491 197.392 28.1491ZM205.093 28.1243C204.513 28.1243 203.987 27.9751 203.517 27.6768C203.049 27.3752 202.678 26.9328 202.403 26.3494C202.131 25.7628 201.995 25.0436 201.995 24.1918C201.995 23.3168 202.136 22.5893 202.418 22.0092C202.7 21.4259 203.074 20.9901 203.542 20.7017C204.012 20.41 204.528 20.2642 205.088 20.2642C205.515 20.2642 205.872 20.3371 206.157 20.483C206.445 20.6255 206.677 20.8045 206.853 21.0199C207.032 21.232 207.167 21.4408 207.26 21.6463H207.325V17.8182H209.438V28H207.35V26.777H207.26C207.161 26.9891 207.02 27.1996 206.838 27.4084C206.659 27.6139 206.425 27.7846 206.137 27.9205C205.852 28.0563 205.504 28.1243 205.093 28.1243ZM205.764 26.4389C206.105 26.4389 206.394 26.3461 206.629 26.1605C206.868 25.9716 207.05 25.7081 207.176 25.37C207.305 25.032 207.37 24.6359 207.37 24.1818C207.37 23.7277 207.307 23.3333 207.181 22.9986C207.055 22.6638 206.873 22.4053 206.634 22.223C206.395 22.0407 206.105 21.9496 205.764 21.9496C205.416 21.9496 205.123 22.044 204.884 22.233C204.645 22.4219 204.465 22.6837 204.342 23.0185C204.219 23.3532 204.158 23.741 204.158 24.1818C204.158 24.6259 204.219 25.0187 204.342 25.3601C204.468 25.6982 204.649 25.9633 204.884 26.1555C205.123 26.3445 205.416 26.4389 205.764 26.4389ZM214.459 28V17.8182H218.476C219.248 17.8182 219.906 17.9657 220.45 18.2607C220.993 18.5523 221.408 18.9583 221.693 19.4787C221.981 19.9957 222.125 20.5923 222.125 21.2685C222.125 21.9446 221.98 22.5412 221.688 23.0582C221.396 23.5753 220.974 23.978 220.42 24.2663C219.87 24.5547 219.204 24.6989 218.422 24.6989H215.861V22.9737H218.074C218.488 22.9737 218.829 22.9025 219.098 22.7599C219.369 22.6141 219.572 22.4136 219.704 22.1584C219.84 21.8999 219.908 21.6032 219.908 21.2685C219.908 20.9304 219.84 20.6354 219.704 20.3835C219.572 20.1283 219.369 19.9311 219.098 19.7919C218.826 19.6494 218.481 19.5781 218.064 19.5781H216.612V28H214.459ZM223.484 28V20.3636H225.537V21.696H225.617C225.756 21.2221 225.99 20.8641 226.318 20.6222C226.646 20.3769 227.024 20.2543 227.451 20.2543C227.557 20.2543 227.672 20.2609 227.794 20.2741C227.917 20.2874 228.025 20.3056 228.117 20.3288V22.2081C228.018 22.1783 227.88 22.1518 227.705 22.1286C227.529 22.1054 227.368 22.0938 227.222 22.0938C226.911 22.0938 226.633 22.1617 226.387 22.2976C226.145 22.4302 225.953 22.6158 225.811 22.8544C225.671 23.093 225.602 23.3681 225.602 23.6797V28H223.484ZM232.307 28.1491C231.535 28.1491 230.867 27.9851 230.304 27.657C229.743 27.3255 229.311 26.8648 229.006 26.2749C228.701 25.6816 228.549 24.9938 228.549 24.2116C228.549 23.4228 228.701 22.7334 229.006 22.1435C229.311 21.5502 229.743 21.0895 230.304 20.7614C230.867 20.4299 231.535 20.2642 232.307 20.2642C233.079 20.2642 233.746 20.4299 234.306 20.7614C234.869 21.0895 235.303 21.5502 235.608 22.1435C235.913 22.7334 236.066 23.4228 236.066 24.2116C236.066 24.9938 235.913 25.6816 235.608 26.2749C235.303 26.8648 234.869 27.3255 234.306 27.657C233.746 27.9851 233.079 28.1491 232.307 28.1491ZM232.317 26.5085C232.668 26.5085 232.962 26.4091 233.197 26.2102C233.432 26.008 233.61 25.733 233.729 25.3849C233.852 25.0369 233.913 24.6409 233.913 24.1967C233.913 23.7526 233.852 23.3565 233.729 23.0085C233.61 22.6605 233.432 22.3854 233.197 22.1832C232.962 21.9811 232.668 21.88 232.317 21.88C231.962 21.88 231.664 21.9811 231.422 22.1832C231.184 22.3854 231.003 22.6605 230.88 23.0085C230.761 23.3565 230.701 23.7526 230.701 24.1967C230.701 24.6409 230.761 25.0369 230.88 25.3849C231.003 25.733 231.184 26.008 231.422 26.2102C231.664 26.4091 231.962 26.5085 232.317 26.5085ZM244.316 20.3636L241.646 28H239.26L236.59 20.3636H238.827L240.413 25.8274H240.493L242.074 20.3636H244.316ZM245.4 28V20.3636H247.518V28H245.4ZM246.464 19.3793C246.149 19.3793 245.879 19.2749 245.653 19.0661C245.431 18.8539 245.32 18.6004 245.32 18.3054C245.32 18.0137 245.431 17.7635 245.653 17.5547C245.879 17.3426 246.149 17.2365 246.464 17.2365C246.779 17.2365 247.047 17.3426 247.269 17.5547C247.495 17.7635 247.607 18.0137 247.607 18.3054C247.607 18.6004 247.495 18.8539 247.269 19.0661C247.047 19.2749 246.779 19.3793 246.464 19.3793ZM252.028 28.1243C251.448 28.1243 250.923 27.9751 250.452 27.6768C249.985 27.3752 249.614 26.9328 249.339 26.3494C249.067 25.7628 248.931 25.0436 248.931 24.1918C248.931 23.3168 249.072 22.5893 249.354 22.0092C249.635 21.4259 250.01 20.9901 250.477 20.7017C250.948 20.41 251.463 20.2642 252.023 20.2642C252.451 20.2642 252.807 20.3371 253.092 20.483C253.381 20.6255 253.613 20.8045 253.788 21.0199C253.967 21.232 254.103 21.4408 254.196 21.6463H254.26V17.8182H256.373V28H254.285V26.777H254.196C254.096 26.9891 253.956 27.1996 253.773 27.4084C253.594 27.6139 253.361 27.7846 253.072 27.9205C252.787 28.0563 252.439 28.1243 252.028 28.1243ZM252.699 26.4389C253.041 26.4389 253.329 26.3461 253.564 26.1605C253.803 25.9716 253.985 25.7081 254.111 25.37C254.241 25.032 254.305 24.6359 254.305 24.1818C254.305 23.7277 254.242 23.3333 254.116 22.9986C253.99 22.6638 253.808 22.4053 253.569 22.223C253.331 22.0407 253.041 21.9496 252.699 21.9496C252.351 21.9496 252.058 22.044 251.819 22.233C251.581 22.4219 251.4 22.6837 251.278 23.0185C251.155 23.3532 251.094 23.741 251.094 24.1818C251.094 24.6259 251.155 25.0187 251.278 25.3601C251.403 25.6982 251.584 25.9633 251.819 26.1555C252.058 26.3445 252.351 26.4389 252.699 26.4389ZM261.595 28.1491C260.809 28.1491 260.133 27.9901 259.566 27.6719C259.003 27.3504 258.569 26.8963 258.264 26.3097C257.959 25.7197 257.806 25.022 257.806 24.2166C257.806 23.4311 257.959 22.7417 258.264 22.1484C258.569 21.5552 258.998 21.0928 259.551 20.7614C260.108 20.4299 260.761 20.2642 261.51 20.2642C262.014 20.2642 262.483 20.3454 262.917 20.5078C263.355 20.6669 263.736 20.9072 264.061 21.2287C264.389 21.5502 264.644 21.9545 264.826 22.4418C265.009 22.9257 265.1 23.4924 265.1 24.142V24.7237H258.652V23.4112H263.106C263.106 23.1063 263.04 22.8362 262.907 22.6009C262.775 22.3655 262.591 22.1816 262.355 22.049C262.123 21.9131 261.853 21.8452 261.545 21.8452C261.224 21.8452 260.939 21.9197 260.69 22.0689C260.445 22.2147 260.252 22.4119 260.113 22.6605C259.974 22.9058 259.903 23.1792 259.9 23.4808V24.7287C259.9 25.1065 259.969 25.433 260.108 25.7081C260.251 25.9832 260.451 26.1953 260.71 26.3445C260.968 26.4936 261.275 26.5682 261.63 26.5682C261.865 26.5682 262.08 26.535 262.276 26.4688C262.471 26.4025 262.639 26.303 262.778 26.1705C262.917 26.0379 263.023 25.8755 263.096 25.6832L265.055 25.8125C264.956 26.2831 264.752 26.6941 264.444 27.0455C264.139 27.3935 263.744 27.6652 263.26 27.8608C262.78 28.053 262.225 28.1491 261.595 28.1491ZM266.482 28V20.3636H268.535V21.696H268.615C268.754 21.2221 268.988 20.8641 269.316 20.6222C269.644 20.3769 270.022 20.2543 270.449 20.2543C270.555 20.2543 270.67 20.2609 270.792 20.2741C270.915 20.2874 271.023 20.3056 271.115 20.3288V22.2081C271.016 22.1783 270.878 22.1518 270.703 22.1286C270.527 22.1054 270.366 22.0938 270.221 22.0938C269.909 22.0938 269.631 22.1617 269.385 22.2976C269.143 22.4302 268.951 22.6158 268.809 22.8544C268.669 23.093 268.6 23.3681 268.6 23.6797V28H266.482ZM275.277 26.2102V24.5149L279.527 17.8182H280.989V20.1648H280.124L277.444 24.4055V24.4851H283.485V26.2102H275.277ZM280.164 28V25.6932L280.203 24.9425V17.8182H282.222V28H280.164ZM288.911 28.2237C288.056 28.2204 287.32 28.0099 286.704 27.5923C286.091 27.1747 285.618 26.5698 285.287 25.7777C284.959 24.9856 284.796 24.0327 284.8 22.919C284.8 21.8087 284.964 20.8625 285.292 20.0803C285.623 19.2981 286.096 18.7031 286.709 18.2955C287.325 17.8845 288.059 17.679 288.911 17.679C289.763 17.679 290.496 17.8845 291.109 18.2955C291.725 18.7064 292.199 19.303 292.531 20.0852C292.862 20.8641 293.026 21.8087 293.023 22.919C293.023 24.036 292.857 24.9905 292.526 25.7827C292.197 26.5748 291.727 27.1797 291.114 27.5973C290.5 28.0149 289.766 28.2237 288.911 28.2237ZM288.911 26.4389C289.495 26.4389 289.96 26.1456 290.308 25.5589C290.656 24.9723 290.829 24.0923 290.825 22.919C290.825 22.1468 290.746 21.5038 290.587 20.9901C290.431 20.4763 290.209 20.0902 289.92 19.8317C289.635 19.5732 289.299 19.4439 288.911 19.4439C288.331 19.4439 287.867 19.7339 287.519 20.3139C287.171 20.8939 286.996 21.7623 286.992 22.919C286.992 23.7012 287.07 24.3542 287.226 24.8778C287.385 25.3982 287.609 25.7893 287.897 26.0511C288.185 26.3097 288.523 26.4389 288.911 26.4389ZM298.276 28.1392C297.574 28.1392 296.947 28.0099 296.397 27.7514C295.85 27.4929 295.416 27.1366 295.095 26.6825C294.773 26.2285 294.606 25.7081 294.593 25.1214H296.681C296.704 25.5159 296.869 25.8357 297.178 26.081C297.486 26.3262 297.852 26.4489 298.276 26.4489C298.615 26.4489 298.913 26.3743 299.171 26.2251C299.433 26.0727 299.637 25.8622 299.783 25.5938C299.932 25.322 300.007 25.0104 300.007 24.6591C300.007 24.3011 299.93 23.9863 299.778 23.7145C299.629 23.4427 299.422 23.2306 299.156 23.0781C298.891 22.9257 298.588 22.8478 298.247 22.8445C297.948 22.8445 297.658 22.9058 297.377 23.0284C297.098 23.151 296.881 23.3184 296.725 23.5305L294.811 23.1875L295.294 17.8182H301.518V19.5781H297.068L296.805 22.1286H296.865C297.044 21.8767 297.314 21.6679 297.675 21.5021C298.036 21.3364 298.441 21.2536 298.888 21.2536C299.501 21.2536 300.048 21.3977 300.529 21.6861C301.009 21.9744 301.389 22.3705 301.667 22.8743C301.945 23.3748 302.083 23.9515 302.08 24.6044C302.083 25.2905 301.924 25.9003 301.602 26.4339C301.284 26.9643 300.838 27.3819 300.265 27.6868C299.695 27.9884 299.032 28.1392 298.276 28.1392ZM310.814 28.2237C309.958 28.2204 309.223 28.0099 308.606 27.5923C307.993 27.1747 307.521 26.5698 307.189 25.7777C306.861 24.9856 306.699 24.0327 306.702 22.919C306.702 21.8087 306.866 20.8625 307.194 20.0803C307.526 19.2981 307.998 18.7031 308.611 18.2955C309.228 17.8845 309.962 17.679 310.814 17.679C311.665 17.679 312.398 17.8845 313.011 18.2955C313.627 18.7064 314.101 19.303 314.433 20.0852C314.764 20.8641 314.928 21.8087 314.925 22.919C314.925 24.036 314.759 24.9905 314.428 25.7827C314.1 26.5748 313.629 27.1797 313.016 27.5973C312.403 28.0149 311.669 28.2237 310.814 28.2237ZM310.814 26.4389C311.397 26.4389 311.863 26.1456 312.211 25.5589C312.559 24.9723 312.731 24.0923 312.728 22.919C312.728 22.1468 312.648 21.5038 312.489 20.9901C312.333 20.4763 312.111 20.0902 311.823 19.8317C311.538 19.5732 311.201 19.4439 310.814 19.4439C310.234 19.4439 309.77 19.7339 309.422 20.3139C309.074 20.8939 308.898 21.7623 308.895 22.919C308.895 23.7012 308.972 24.3542 309.128 24.8778C309.287 25.3982 309.511 25.7893 309.799 26.0511C310.088 26.3097 310.426 26.4389 310.814 26.4389ZM320.452 28.2237C319.597 28.2204 318.861 28.0099 318.245 27.5923C317.632 27.1747 317.159 26.5698 316.828 25.7777C316.5 24.9856 316.337 24.0327 316.341 22.919C316.341 21.8087 316.505 20.8625 316.833 20.0803C317.164 19.2981 317.637 18.7031 318.25 18.2955C318.866 17.8845 319.6 17.679 320.452 17.679C321.304 17.679 322.037 17.8845 322.65 18.2955C323.266 18.7064 323.74 19.303 324.072 20.0852C324.403 20.8641 324.567 21.8087 324.564 22.919C324.564 24.036 324.398 24.9905 324.067 25.7827C323.738 26.5748 323.268 27.1797 322.655 27.5973C322.041 28.0149 321.307 28.2237 320.452 28.2237ZM320.452 26.4389C321.036 26.4389 321.501 26.1456 321.849 25.5589C322.197 24.9723 322.37 24.0923 322.366 22.919C322.366 22.1468 322.287 21.5038 322.128 20.9901C321.972 20.4763 321.75 20.0902 321.461 19.8317C321.176 19.5732 320.84 19.4439 320.452 19.4439C319.872 19.4439 319.408 19.7339 319.06 20.3139C318.712 20.8939 318.537 21.7623 318.533 22.919C318.533 23.7012 318.611 24.3542 318.767 24.8778C318.926 25.3982 319.15 25.7893 319.438 26.0511C319.726 26.3097 320.064 26.4389 320.452 26.4389ZM330.528 17.8182V28H328.376V19.8615H328.316L325.984 21.3232V19.4141L328.505 17.8182H330.528ZM339.873 17.679C340.396 17.679 340.9 17.7668 341.384 17.9425C341.871 18.1181 342.305 18.3982 342.686 18.7827C343.071 19.1671 343.374 19.6776 343.596 20.3139C343.822 20.947 343.936 21.7242 343.939 22.6456C343.939 23.5107 343.842 24.2829 343.646 24.9624C343.454 25.6385 343.177 26.2135 342.816 26.6875C342.454 27.1615 342.019 27.5227 341.508 27.7713C340.998 28.0166 340.428 28.1392 339.798 28.1392C339.118 28.1392 338.519 28.0083 337.998 27.7464C337.478 27.4813 337.059 27.1217 336.74 26.6676C336.426 26.2102 336.235 25.6965 336.169 25.1264H338.292C338.374 25.4976 338.548 25.786 338.814 25.9915C339.079 26.1937 339.407 26.2947 339.798 26.2947C340.461 26.2947 340.965 26.0064 341.309 25.4297C341.654 24.8497 341.828 24.0559 341.831 23.0483H341.762C341.609 23.3466 341.404 23.6035 341.145 23.8189C340.887 24.031 340.59 24.1951 340.255 24.3111C339.924 24.4271 339.571 24.4851 339.196 24.4851C338.596 24.4851 338.061 24.3442 337.591 24.0625C337.12 23.7808 336.749 23.393 336.477 22.8991C336.205 22.4053 336.069 21.8419 336.069 21.2088C336.066 20.526 336.223 19.9179 336.542 19.3842C336.86 18.8506 337.304 18.433 337.874 18.1314C338.447 17.8265 339.114 17.6757 339.873 17.679ZM339.887 19.3693C339.553 19.3693 339.254 19.4489 338.993 19.608C338.734 19.767 338.529 19.9808 338.376 20.2493C338.227 20.5178 338.154 20.8177 338.157 21.1491C338.157 21.4839 338.23 21.7855 338.376 22.054C338.525 22.3191 338.727 22.5312 338.983 22.6903C339.241 22.8461 339.536 22.924 339.868 22.924C340.116 22.924 340.346 22.8776 340.559 22.7848C340.771 22.692 340.955 22.5644 341.11 22.402C341.27 22.2363 341.394 22.0457 341.483 21.8303C341.573 21.6148 341.618 21.3861 341.618 21.1442C341.614 20.8227 341.538 20.5277 341.389 20.2592C341.24 19.9908 341.034 19.7753 340.772 19.6129C340.511 19.4505 340.216 19.3693 339.887 19.3693ZM345.277 26.2102V24.5149L349.527 17.8182H350.989V20.1648H350.124L347.444 24.4055V24.4851H353.485V26.2102H345.277ZM350.164 28V25.6932L350.203 24.9425V17.8182H352.222V28H350.164ZM359.212 17.8182V28H357.059V19.8615H357L354.668 21.3232V19.4141L357.189 17.8182H359.212ZM366.062 17.8182V28H363.909V19.8615H363.849L361.518 21.3232V19.4141L364.038 17.8182H366.062Z" fill="#CBE5FF"/>
<path d="M82.926 11C82.926 11 80 11 80 13.9361V29.811C80 29.811 80 33 83.178 33H119.074C119.074 33 122 33 122 30.0639V21.0728C122 21.0728 122 11 111.962 11H82.926Z" fill="#6A2875"/>
<path d="M85.9874 18.787C86.9474 18.787 87.1208 18.8272 87.2007 19.0414C87.2541 19.2154 87.2941 19.5367 87.3341 19.8312C87.9607 19.1083 88.9741 18.5996 90.1607 18.5996C91.3474 18.5996 92.2941 18.9878 92.8807 19.6572C93.5207 20.38 93.8007 21.3305 93.8007 22.8164V28.8538C93.8007 29.0679 93.6807 29.1483 92.5341 29.1483H92.4407C91.1741 29.1483 91.1341 29.0679 91.1341 28.8538V23.5527C91.1341 22.2006 91.0541 21.7856 90.7474 21.4376C90.4941 21.1431 90.0007 20.9824 89.4407 20.9824C88.9874 20.9824 88.4807 21.0761 88.1341 21.2903C87.7207 21.5447 87.6274 21.8659 87.5874 22.3345C87.5474 22.7896 87.5474 23.5125 87.5474 24.2621V28.8538C87.5474 29.0679 87.4274 29.1483 86.2808 29.1483H86.1874C84.9208 29.1483 84.8808 29.0679 84.8808 28.8538V23.4456C84.8808 21.9195 84.8274 20.206 84.7474 19.1485C84.7341 18.8807 84.8008 18.8004 85.9208 18.8004H85.9874V18.787Z" fill="white"/>
<path d="M101.386 21.799C100.893 21.21 100.306 20.9021 99.6264 20.9021C98.1998 20.9021 97.5198 22.04 97.5198 24.1149C97.5198 25.2662 97.7864 26.0158 98.1864 26.471C98.5331 26.8859 99.1064 27.0332 99.6531 27.0332C100.2 27.0332 100.826 26.8324 101.12 26.5245C101.333 26.2835 101.386 25.9757 101.386 25.467V21.799ZM102.8 14.2356C103.946 14.2356 104.066 14.3159 104.066 14.5301V26.5111C104.066 26.9395 104.24 27.06 104.626 27.06C104.866 27.06 104.88 27.1537 104.88 27.8632V28.0774C104.88 28.7601 104.84 28.9207 104.706 28.9743C104.36 29.1081 103.826 29.2152 103.306 29.2152C102.44 29.2152 101.866 28.827 101.6 28.238C100.933 28.9475 99.9598 29.3357 98.8798 29.3357C96.3198 29.3357 94.7598 27.3277 94.7598 24.1149C94.7598 20.6478 96.4931 18.5862 99.0531 18.5862C99.9731 18.5862 100.733 18.8941 101.373 19.4698V14.5301C101.373 14.3159 101.413 14.2356 102.68 14.2356H102.8Z" fill="white"/>
<path d="M109.76 26.9263C110.094 26.3373 110.267 26.1632 110.48 26.3239C111.24 26.8326 112.16 27.1672 112.987 27.1672C114.027 27.1672 114.627 26.779 114.627 26.2436C114.627 24.7175 109.627 25.6546 109.627 21.9063C109.627 19.8448 111.387 18.5864 113.667 18.5864C114.96 18.5864 116.067 18.9345 116.894 19.5636C117.094 19.6975 117.054 19.8582 116.654 20.5275L116.48 20.8086C116.134 21.411 115.987 21.5181 115.774 21.3708C115.147 20.9826 114.547 20.7417 113.774 20.7417C113.214 20.7417 112.76 20.8621 112.507 21.0763C112.334 21.237 112.24 21.411 112.24 21.652C112.24 23.1245 117.24 22.3615 117.24 25.8955C117.24 26.7924 116.867 27.6625 116.24 28.2649C115.52 28.9744 114.44 29.3493 113.014 29.3493C111.507 29.3493 110.187 28.854 109.374 28.1712C109.214 28.0374 109.24 27.8633 109.547 27.2877L109.76 26.9263Z" fill="white"/>
<path d="M107.345 18.7871C108.505 18.7871 108.612 18.8674 108.612 19.0816V28.8538C108.612 29.068 108.492 29.1483 107.345 29.1483H107.238C105.972 29.1483 105.932 29.068 105.932 28.8538V19.0816C105.932 18.8674 105.972 18.7871 107.238 18.7871H107.345Z" fill="white"/>
<path d="M107.24 17.6893C108.186 17.6893 108.96 16.9129 108.96 15.9625C108.96 15.012 108.186 14.2356 107.24 14.2356C106.293 14.2356 105.52 15.012 105.52 15.9625C105.52 16.9129 106.293 17.6893 107.24 17.6893Z" fill="#82C341"/>
<rect x="1236" y="8.5" width="124" height="29" rx="2" fill="white"/>
<path fill-rule="evenodd" clip-rule="evenodd" d="M1260.43 30C1260.76 29.9986 1261.07 29.8638 1261.3 29.6252C1261.53 29.3865 1261.66 29.0636 1261.66 28.7274C1261.66 28.5609 1261.63 28.3959 1261.57 28.2418C1261.51 28.0877 1261.42 27.9475 1261.3 27.8293C1261.19 27.7111 1261.05 27.6172 1260.9 27.5528C1260.75 27.4885 1260.59 27.455 1260.43 27.4543C1260.27 27.455 1260.11 27.4885 1259.96 27.5528C1259.81 27.6172 1259.68 27.7111 1259.56 27.8293C1259.45 27.9475 1259.36 28.0877 1259.3 28.2418C1259.24 28.3959 1259.2 28.5609 1259.21 28.7274C1259.2 29.0636 1259.33 29.3865 1259.56 29.6252C1259.79 29.8638 1260.11 29.9986 1260.43 30ZM1255.52 30C1255.85 29.9985 1256.16 29.8636 1256.39 29.625C1256.62 29.3864 1256.75 29.0635 1256.75 28.7274C1256.75 28.3912 1256.62 28.0682 1256.39 27.8295C1256.16 27.5908 1255.85 27.4558 1255.52 27.4543C1255.36 27.455 1255.2 27.4885 1255.05 27.5528C1254.9 27.6172 1254.77 27.7111 1254.65 27.8293C1254.54 27.9475 1254.45 28.0877 1254.39 28.2418C1254.33 28.3959 1254.3 28.5609 1254.3 28.7274C1254.29 29.0636 1254.42 29.3865 1254.65 29.6252C1254.88 29.8638 1255.2 29.9986 1255.52 30ZM1263.96 19.7772C1263.85 19.6125 1263.88 19.5439 1263.47 19.4725C1261.24 19.0786 1253.91 17.7831 1253.44 17.6464C1253.17 17.5661 1253.13 17.4747 1252.93 17.008C1252.5 16 1251.63 16 1251.63 16H1250.5C1250.5 16 1250 16 1250 16.6407C1250 17.2815 1250.52 17.2343 1250.52 17.2343L1251.19 17.2773C1251.19 17.2773 1251.58 17.3533 1251.89 17.6464C1252.21 17.9404 1252.26 18.5811 1252.26 18.5811L1253.78 26.5005H1262.48L1263.96 20.2625C1263.96 20.2625 1264.06 19.9419 1263.96 19.7772Z" fill="#002B64"/>
<path d="M1282.66 23.1364C1282.66 24.0767 1282.48 24.8821 1282.13 25.5526C1281.78 26.2202 1281.3 26.7315 1280.7 27.0866C1280.1 27.4418 1279.41 27.6193 1278.65 27.6193C1277.88 27.6193 1277.2 27.4418 1276.6 27.0866C1275.99 26.7287 1275.52 26.2159 1275.16 25.5483C1274.81 24.8778 1274.64 24.0739 1274.64 23.1364C1274.64 22.196 1274.81 21.392 1275.16 20.7244C1275.52 20.054 1275.99 19.5412 1276.6 19.1861C1277.2 18.831 1277.88 18.6534 1278.65 18.6534C1279.41 18.6534 1280.1 18.831 1280.7 19.1861C1281.3 19.5412 1281.78 20.054 1282.13 20.7244C1282.48 21.392 1282.66 22.196 1282.66 23.1364ZM1281.07 23.1364C1281.07 22.4744 1280.97 21.9162 1280.76 21.4616C1280.55 21.0043 1280.27 20.6591 1279.91 20.4261C1279.54 20.1903 1279.12 20.0724 1278.65 20.0724C1278.17 20.0724 1277.76 20.1903 1277.39 20.4261C1277.03 20.6591 1276.74 21.0043 1276.54 21.4616C1276.33 21.9162 1276.23 22.4744 1276.23 23.1364C1276.23 23.7983 1276.33 24.358 1276.54 24.8153C1276.74 25.2699 1277.03 25.6151 1277.39 25.8509C1277.76 26.0838 1278.17 26.2003 1278.65 26.2003C1279.12 26.2003 1279.54 26.0838 1279.91 25.8509C1280.27 25.6151 1280.55 25.2699 1280.76 24.8153C1280.97 24.358 1281.07 23.7983 1281.07 23.1364ZM1285.63 23.6648V27.5H1284.09V20.9545H1285.56V22.0668H1285.64C1285.79 21.7003 1286.03 21.4091 1286.36 21.1932C1286.69 20.9773 1287.1 20.8693 1287.59 20.8693C1288.04 20.8693 1288.43 20.9659 1288.77 21.1591C1289.11 21.3523 1289.37 21.6321 1289.55 21.9986C1289.74 22.3651 1289.83 22.8097 1289.83 23.3324V27.5H1288.29V23.571C1288.29 23.1335 1288.17 22.7912 1287.95 22.544C1287.72 22.2969 1287.41 22.1733 1287.01 22.1733C1286.74 22.1733 1286.5 22.233 1286.29 22.3523C1286.09 22.4687 1285.92 22.6378 1285.8 22.8594C1285.69 23.081 1285.63 23.3494 1285.63 23.6648ZM1292.94 18.7727V27.5H1291.4V18.7727H1292.94ZM1294.53 27.5V20.9545H1296.07V27.5H1294.53ZM1295.3 20.0256C1295.06 20.0256 1294.85 19.9446 1294.67 19.7827C1294.5 19.6179 1294.41 19.4205 1294.41 19.1903C1294.41 18.9574 1294.5 18.7599 1294.67 18.598C1294.85 18.4332 1295.06 18.3509 1295.3 18.3509C1295.55 18.3509 1295.76 18.4332 1295.93 18.598C1296.11 18.7599 1296.2 18.9574 1296.2 19.1903C1296.2 19.4205 1296.11 19.6179 1295.93 19.7827C1295.76 19.9446 1295.55 20.0256 1295.3 20.0256ZM1299.2 23.6648V27.5H1297.66V20.9545H1299.13V22.0668H1299.21C1299.36 21.7003 1299.6 21.4091 1299.93 21.1932C1300.26 20.9773 1300.67 20.8693 1301.16 20.8693C1301.61 20.8693 1302 20.9659 1302.34 21.1591C1302.68 21.3523 1302.94 21.6321 1303.12 21.9986C1303.31 22.3651 1303.4 22.8097 1303.4 23.3324V27.5H1301.86V23.571C1301.86 23.1335 1301.74 22.7912 1301.52 22.544C1301.29 22.2969 1300.98 22.1733 1300.58 22.1733C1300.31 22.1733 1300.07 22.233 1299.86 22.3523C1299.66 22.4687 1299.49 22.6378 1299.37 22.8594C1299.26 23.081 1299.2 23.3494 1299.2 23.6648ZM1307.87 27.6278C1307.21 27.6278 1306.64 27.4915 1306.17 27.2188C1305.69 26.9432 1305.33 26.554 1305.07 26.0511C1304.81 25.5455 1304.69 24.9503 1304.69 24.2656C1304.69 23.5923 1304.81 23.0014 1305.07 22.4929C1305.33 21.9815 1305.69 21.5838 1306.15 21.2997C1306.62 21.0128 1307.16 20.8693 1307.79 20.8693C1308.19 20.8693 1308.57 20.9347 1308.93 21.0653C1309.29 21.1932 1309.61 21.392 1309.88 21.6619C1310.16 21.9318 1310.38 22.2756 1310.54 22.6932C1310.7 23.108 1310.78 23.6023 1310.78 24.1761V24.6491H1305.41V23.6094H1309.3C1309.3 23.3139 1309.23 23.0511 1309.11 22.821C1308.98 22.5881 1308.81 22.4048 1308.58 22.2713C1308.36 22.1378 1308.1 22.071 1307.81 22.071C1307.49 22.071 1307.21 22.1477 1306.98 22.3011C1306.74 22.4517 1306.55 22.6506 1306.42 22.8977C1306.29 23.142 1306.22 23.4105 1306.22 23.7031V24.6108C1306.22 24.9915 1306.29 25.3182 1306.43 25.5909C1306.56 25.8608 1306.76 26.0682 1307.01 26.2131C1307.26 26.3551 1307.55 26.4261 1307.89 26.4261C1308.11 26.4261 1308.31 26.3949 1308.5 26.3324C1308.68 26.267 1308.84 26.1719 1308.97 26.0469C1309.1 25.9219 1309.2 25.767 1309.27 25.5824L1310.71 25.7443C1310.62 26.125 1310.45 26.4574 1310.19 26.7415C1309.94 27.0227 1309.62 27.2415 1309.22 27.3977C1308.83 27.5511 1308.37 27.6278 1307.87 27.6278ZM1319.87 21.1719C1319.83 20.7997 1319.66 20.5099 1319.37 20.3026C1319.07 20.0952 1318.69 19.9915 1318.22 19.9915C1317.89 19.9915 1317.61 20.0412 1317.38 20.1406C1317.14 20.2401 1316.96 20.375 1316.84 20.5455C1316.71 20.7159 1316.65 20.9105 1316.64 21.1293C1316.64 21.3111 1316.68 21.4687 1316.77 21.6023C1316.85 21.7358 1316.97 21.8494 1317.11 21.9432C1317.26 22.0341 1317.42 22.1108 1317.59 22.1733C1317.77 22.2358 1317.95 22.2884 1318.13 22.331L1318.94 22.5355C1319.27 22.6122 1319.59 22.7159 1319.89 22.8466C1320.2 22.9773 1320.48 23.142 1320.72 23.3409C1320.96 23.5398 1321.15 23.7798 1321.3 24.0611C1321.44 24.3423 1321.51 24.6719 1321.51 25.0497C1321.51 25.5611 1321.38 26.0114 1321.12 26.4006C1320.86 26.7869 1320.48 27.0895 1319.98 27.3082C1319.49 27.5241 1318.9 27.6321 1318.2 27.6321C1317.52 27.6321 1316.93 27.527 1316.43 27.3168C1315.93 27.1065 1315.54 26.7997 1315.26 26.3963C1314.98 25.9929 1314.83 25.5014 1314.81 24.9219H1316.37C1316.39 25.2259 1316.48 25.4787 1316.65 25.6804C1316.81 25.8821 1317.03 26.0327 1317.29 26.1321C1317.56 26.2315 1317.86 26.2812 1318.19 26.2812C1318.53 26.2812 1318.83 26.2301 1319.09 26.1278C1319.35 26.0227 1319.56 25.8778 1319.7 25.6932C1319.85 25.5057 1319.93 25.2869 1319.93 25.0369C1319.93 24.8097 1319.86 24.6222 1319.73 24.4744C1319.6 24.3239 1319.41 24.1989 1319.18 24.0994C1318.95 23.9972 1318.67 23.9062 1318.36 23.8267L1317.37 23.571C1316.65 23.3864 1316.08 23.1065 1315.66 22.7315C1315.25 22.3537 1315.04 21.8523 1315.04 21.2273C1315.04 20.7131 1315.18 20.2628 1315.46 19.8764C1315.74 19.4901 1316.12 19.1903 1316.61 18.9773C1317.09 18.7614 1317.63 18.6534 1318.25 18.6534C1318.87 18.6534 1319.41 18.7614 1319.87 18.9773C1320.34 19.1903 1320.71 19.4872 1320.98 19.8679C1321.24 20.2457 1321.38 20.6804 1321.39 21.1719H1319.87ZM1326.12 20.9545V22.1477H1322.36V20.9545H1326.12ZM1323.29 19.3864H1324.83V25.5312C1324.83 25.7386 1324.86 25.8977 1324.92 26.0085C1324.99 26.1165 1325.07 26.1903 1325.18 26.2301C1325.28 26.2699 1325.4 26.2898 1325.53 26.2898C1325.62 26.2898 1325.71 26.2827 1325.79 26.2685C1325.87 26.2543 1325.94 26.2415 1325.98 26.2301L1326.24 27.4361C1326.16 27.4645 1326.04 27.4957 1325.89 27.5298C1325.73 27.5639 1325.55 27.5838 1325.33 27.5895C1324.94 27.6009 1324.6 27.5426 1324.29 27.4148C1323.98 27.2841 1323.73 27.0824 1323.55 26.8097C1323.37 26.5369 1323.28 26.196 1323.29 25.7869V19.3864ZM1330.19 27.6278C1329.56 27.6278 1329 27.4872 1328.53 27.206C1328.06 26.9247 1327.7 26.5312 1327.44 26.0256C1327.19 25.5199 1327.06 24.929 1327.06 24.2528C1327.06 23.5767 1327.19 22.9844 1327.44 22.4759C1327.7 21.9673 1328.06 21.5724 1328.53 21.2912C1329 21.0099 1329.56 20.8693 1330.19 20.8693C1330.83 20.8693 1331.39 21.0099 1331.86 21.2912C1332.33 21.5724 1332.69 21.9673 1332.94 22.4759C1333.2 22.9844 1333.33 23.5767 1333.33 24.2528C1333.33 24.929 1333.2 25.5199 1332.94 26.0256C1332.69 26.5312 1332.33 26.9247 1331.86 27.206C1331.39 27.4872 1330.83 27.6278 1330.19 27.6278ZM1330.2 26.392C1330.55 26.392 1330.84 26.2969 1331.07 26.1065C1331.31 25.9134 1331.48 25.6548 1331.59 25.331C1331.71 25.0071 1331.77 24.6463 1331.77 24.2486C1331.77 23.848 1331.71 23.4858 1331.59 23.1619C1331.48 22.8352 1331.31 22.5753 1331.07 22.3821C1330.84 22.1889 1330.55 22.0923 1330.2 22.0923C1329.85 22.0923 1329.55 22.1889 1329.32 22.3821C1329.08 22.5753 1328.91 22.8352 1328.79 23.1619C1328.68 23.4858 1328.62 23.848 1328.62 24.2486C1328.62 24.6463 1328.68 25.0071 1328.79 25.331C1328.91 25.6548 1329.08 25.9134 1329.32 26.1065C1329.55 26.2969 1329.85 26.392 1330.2 26.392ZM1334.64 27.5V20.9545H1336.14V22.0455H1336.2C1336.32 21.6676 1336.53 21.3764 1336.82 21.1719C1337.11 20.9645 1337.44 20.8608 1337.82 20.8608C1337.9 20.8608 1338 20.8651 1338.1 20.8736C1338.21 20.8793 1338.3 20.8892 1338.37 20.9034V22.3224C1338.31 22.2997 1338.2 22.2798 1338.06 22.2628C1337.92 22.2429 1337.79 22.233 1337.66 22.233C1337.38 22.233 1337.12 22.294 1336.9 22.4162C1336.68 22.5355 1336.5 22.7017 1336.37 22.9148C1336.25 23.1278 1336.18 23.3736 1336.18 23.652V27.5H1334.64ZM1342.03 27.6278C1341.37 27.6278 1340.8 27.4915 1340.33 27.2188C1339.85 26.9432 1339.49 26.554 1339.23 26.0511C1338.98 25.5455 1338.85 24.9503 1338.85 24.2656C1338.85 23.5923 1338.98 23.0014 1339.23 22.4929C1339.49 21.9815 1339.85 21.5838 1340.31 21.2997C1340.78 21.0128 1341.32 20.8693 1341.95 20.8693C1342.35 20.8693 1342.73 20.9347 1343.09 21.0653C1343.45 21.1932 1343.77 21.392 1344.04 21.6619C1344.32 21.9318 1344.54 22.2756 1344.7 22.6932C1344.86 23.108 1344.94 23.6023 1344.94 24.1761V24.6491H1339.57V23.6094H1343.46C1343.46 23.3139 1343.39 23.0511 1343.27 22.821C1343.14 22.5881 1342.97 22.4048 1342.74 22.2713C1342.52 22.1378 1342.26 22.071 1341.97 22.071C1341.65 22.071 1341.37 22.1477 1341.14 22.3011C1340.9 22.4517 1340.71 22.6506 1340.58 22.8977C1340.45 23.142 1340.38 23.4105 1340.38 23.7031V24.6108C1340.38 24.9915 1340.45 25.3182 1340.59 25.5909C1340.73 25.8608 1340.92 26.0682 1341.17 26.2131C1341.42 26.3551 1341.71 26.4261 1342.05 26.4261C1342.27 26.4261 1342.48 26.3949 1342.66 26.3324C1342.84 26.267 1343 26.1719 1343.13 26.0469C1343.26 25.9219 1343.36 25.767 1343.43 25.5824L1344.87 25.7443C1344.78 26.125 1344.61 26.4574 1344.35 26.7415C1344.1 27.0227 1343.78 27.2415 1343.38 27.3977C1342.99 27.5511 1342.53 27.6278 1342.03 27.6278Z" fill="#002B64"/>
<path d="M870.672 20.4929C870.619 20.0223 870.4 19.6577 870.016 19.3991C869.631 19.1373 869.147 19.0064 868.564 19.0064C868.146 19.0064 867.785 19.0727 867.48 19.2053C867.175 19.3345 866.938 19.5135 866.769 19.7422C866.603 19.9676 866.521 20.2244 866.521 20.5128C866.521 20.7547 866.577 20.9635 866.69 21.1392C866.806 21.3149 866.956 21.4624 867.142 21.5817C867.331 21.6977 867.533 21.7955 867.749 21.875C867.964 21.9512 868.171 22.0142 868.37 22.0639L869.364 22.3224C869.689 22.402 870.022 22.5097 870.364 22.6456C870.705 22.7815 871.022 22.9605 871.313 23.1825C871.605 23.4046 871.84 23.6797 872.019 24.0078C872.201 24.3359 872.293 24.7287 872.293 25.1861C872.293 25.7628 872.143 26.2749 871.845 26.7223C871.55 27.1697 871.121 27.5227 870.558 27.7812C869.997 28.0398 869.32 28.169 868.524 28.169C867.762 28.169 867.102 28.0481 866.545 27.8061C865.989 27.5642 865.553 27.2211 865.238 26.777C864.923 26.3295 864.749 25.7992 864.716 25.1861H866.257C866.287 25.554 866.406 25.8606 866.615 26.1058C866.827 26.3478 867.097 26.5284 867.425 26.6477C867.757 26.7637 868.12 26.8217 868.514 26.8217C868.948 26.8217 869.335 26.7538 869.673 26.6179C870.014 26.4787 870.282 26.2865 870.478 26.0412C870.674 25.7926 870.771 25.5026 870.771 25.1712C870.771 24.8696 870.685 24.6226 870.513 24.4304C870.344 24.2382 870.113 24.0791 869.822 23.9531C869.533 23.8272 869.207 23.7161 868.842 23.62L867.639 23.2919C866.824 23.0698 866.178 22.7434 865.7 22.3125C865.226 21.8816 864.989 21.3116 864.989 20.6023C864.989 20.0156 865.148 19.5036 865.467 19.0661C865.785 18.6286 866.216 18.2888 866.759 18.0469C867.303 17.8016 867.916 17.679 868.599 17.679C869.288 17.679 869.896 17.8 870.423 18.0419C870.954 18.2839 871.371 18.617 871.676 19.0412C871.981 19.4621 872.14 19.946 872.153 20.4929H870.672ZM877.574 20.3636V21.5568H873.403V20.3636H877.574ZM874.521 18.5341H876.008V25.7578C876.008 26.0462 876.051 26.2633 876.137 26.4091C876.223 26.5516 876.334 26.6494 876.47 26.7024C876.609 26.7521 876.76 26.777 876.922 26.777C877.042 26.777 877.146 26.7687 877.236 26.7521C877.325 26.7356 877.395 26.7223 877.444 26.7124L877.713 27.9403C877.627 27.9735 877.504 28.0066 877.345 28.0398C877.186 28.0762 876.987 28.0961 876.748 28.0994C876.357 28.1061 875.993 28.0365 875.655 27.8906C875.317 27.7448 875.043 27.5194 874.834 27.2145C874.626 26.9096 874.521 26.5268 874.521 26.0661V18.5341ZM882.353 28.1541C881.637 28.1541 881.012 27.9901 880.478 27.6619C879.945 27.3338 879.53 26.8748 879.235 26.2848C878.94 25.6948 878.793 25.0054 878.793 24.2166C878.793 23.4245 878.94 22.7318 879.235 22.1385C879.53 21.5452 879.945 21.0845 880.478 20.7564C881.012 20.4283 881.637 20.2642 882.353 20.2642C883.069 20.2642 883.693 20.4283 884.227 20.7564C884.761 21.0845 885.175 21.5452 885.47 22.1385C885.765 22.7318 885.912 23.4245 885.912 24.2166C885.912 25.0054 885.765 25.6948 885.47 26.2848C885.175 26.8748 884.761 27.3338 884.227 27.6619C883.693 27.9901 883.069 28.1541 882.353 28.1541ZM882.358 26.9062C882.822 26.9062 883.206 26.7836 883.511 26.5384C883.816 26.2931 884.041 25.9666 884.187 25.5589C884.336 25.1513 884.411 24.7022 884.411 24.2116C884.411 23.7244 884.336 23.277 884.187 22.8693C884.041 22.4583 883.816 22.1286 883.511 21.88C883.206 21.6314 882.822 21.5071 882.358 21.5071C881.89 21.5071 881.502 21.6314 881.194 21.88C880.889 22.1286 880.662 22.4583 880.513 22.8693C880.367 23.277 880.294 23.7244 880.294 24.2116C880.294 24.7022 880.367 25.1513 880.513 25.5589C880.662 25.9666 880.889 26.2931 881.194 26.5384C881.502 26.7836 881.89 26.9062 882.358 26.9062ZM887.572 28V20.3636H889.008V21.5767H889.088C889.227 21.1657 889.472 20.8426 889.824 20.6072C890.178 20.3686 890.579 20.2493 891.027 20.2493C891.12 20.2493 891.229 20.2526 891.355 20.2592C891.484 20.2659 891.585 20.2741 891.658 20.2841V21.706C891.599 21.6894 891.492 21.6712 891.34 21.6513C891.188 21.6281 891.035 21.6165 890.883 21.6165C890.531 21.6165 890.218 21.6911 889.943 21.8402C889.671 21.986 889.456 22.1899 889.297 22.4517C889.138 22.7102 889.058 23.0052 889.058 23.3366V28H887.572ZM895.962 28.1541C895.21 28.1541 894.562 27.9934 894.018 27.6719C893.478 27.3471 893.061 26.8913 892.766 26.3047C892.474 25.7147 892.328 25.0237 892.328 24.2315C892.328 23.4493 892.474 22.7599 892.766 22.1634C893.061 21.5668 893.472 21.1011 893.999 20.7663C894.529 20.4316 895.149 20.2642 895.858 20.2642C896.289 20.2642 896.706 20.3355 897.111 20.478C897.515 20.6205 897.878 20.8442 898.2 21.1491C898.521 21.4541 898.775 21.8501 898.96 22.3374C899.146 22.8213 899.239 23.4096 899.239 24.1023V24.6293H893.168V23.5156H897.782C897.782 23.1245 897.702 22.7782 897.543 22.4766C897.384 22.1716 897.161 21.9313 896.872 21.7557C896.587 21.58 896.252 21.4922 895.868 21.4922C895.45 21.4922 895.086 21.5949 894.774 21.8004C894.466 22.0026 894.227 22.2678 894.058 22.5959C893.893 22.9207 893.81 23.2737 893.81 23.6548V24.5249C893.81 25.0353 893.899 25.4695 894.078 25.8274C894.26 26.1854 894.514 26.4588 894.839 26.6477C895.164 26.8333 895.543 26.9261 895.977 26.9261C896.259 26.9261 896.516 26.8864 896.748 26.8068C896.98 26.724 897.18 26.6013 897.349 26.4389C897.518 26.2765 897.648 26.076 897.737 25.8374L899.144 26.0909C899.031 26.5052 898.829 26.8681 898.538 27.1797C898.249 27.4879 897.886 27.7282 897.449 27.9006C897.015 28.0696 896.519 28.1541 895.962 28.1541ZM904.712 28V17.8182H906.249V26.6776H910.862V28H904.712ZM915.712 28.1541C914.996 28.1541 914.371 27.9901 913.838 27.6619C913.304 27.3338 912.89 26.8748 912.595 26.2848C912.3 25.6948 912.152 25.0054 912.152 24.2166C912.152 23.4245 912.3 22.7318 912.595 22.1385C912.89 21.5452 913.304 21.0845 913.838 20.7564C914.371 20.4283 914.996 20.2642 915.712 20.2642C916.428 20.2642 917.053 20.4283 917.586 20.7564C918.12 21.0845 918.534 21.5452 918.829 22.1385C919.124 22.7318 919.272 23.4245 919.272 24.2166C919.272 25.0054 919.124 25.6948 918.829 26.2848C918.534 26.8748 918.12 27.3338 917.586 27.6619C917.053 27.9901 916.428 28.1541 915.712 28.1541ZM915.717 26.9062C916.181 26.9062 916.565 26.7836 916.87 26.5384C917.175 26.2931 917.401 25.9666 917.547 25.5589C917.696 25.1513 917.77 24.7022 917.77 24.2116C917.77 23.7244 917.696 23.277 917.547 22.8693C917.401 22.4583 917.175 22.1286 916.87 21.88C916.565 21.6314 916.181 21.5071 915.717 21.5071C915.25 21.5071 914.862 21.6314 914.554 21.88C914.249 22.1286 914.022 22.4583 913.873 22.8693C913.727 23.277 913.654 23.7244 913.654 24.2116C913.654 24.7022 913.727 25.1513 913.873 25.5589C914.022 25.9666 914.249 26.2931 914.554 26.5384C914.862 26.7836 915.25 26.9062 915.717 26.9062ZM924.148 28.1541C923.408 28.1541 922.772 27.9867 922.238 27.652C921.708 27.3139 921.3 26.8482 921.015 26.255C920.73 25.6617 920.588 24.9822 920.588 24.2166C920.588 23.4411 920.734 22.7566 921.025 22.1634C921.317 21.5668 921.728 21.1011 922.258 20.7663C922.789 20.4316 923.413 20.2642 924.133 20.2642C924.713 20.2642 925.23 20.3719 925.684 20.5874C926.138 20.7995 926.504 21.0978 926.782 21.4822C927.064 21.8667 927.232 22.3158 927.285 22.8295H925.838C925.758 22.4716 925.576 22.1634 925.291 21.9048C925.009 21.6463 924.631 21.517 924.157 21.517C923.743 21.517 923.38 21.6264 923.069 21.8452C922.76 22.0606 922.52 22.3688 922.348 22.7699C922.175 23.1676 922.089 23.6383 922.089 24.1818C922.089 24.7386 922.174 25.2192 922.343 25.6236C922.512 26.0279 922.751 26.3411 923.059 26.5632C923.37 26.7853 923.737 26.8963 924.157 26.8963C924.439 26.8963 924.694 26.8449 924.923 26.7422C925.155 26.6361 925.349 26.4853 925.505 26.2898C925.664 26.0942 925.775 25.8589 925.838 25.5838H927.285C927.232 26.0777 927.071 26.5185 926.802 26.9062C926.534 27.294 926.174 27.599 925.724 27.821C925.276 28.0431 924.751 28.1541 924.148 28.1541ZM931.097 28.169C930.613 28.169 930.175 28.0795 929.784 27.9006C929.393 27.7183 929.083 27.4548 928.854 27.1101C928.629 26.7654 928.516 26.3428 928.516 25.8423C928.516 25.4115 928.599 25.0568 928.765 24.7784C928.931 24.5 929.154 24.2796 929.436 24.1172C929.718 23.9548 930.033 23.8321 930.381 23.7493C930.729 23.6664 931.083 23.6035 931.445 23.5604C931.902 23.5073 932.273 23.4643 932.558 23.4311C932.843 23.3946 933.05 23.3366 933.18 23.2571C933.309 23.1776 933.374 23.0483 933.374 22.8693V22.8345C933.374 22.4003 933.251 22.0639 933.006 21.8253C932.764 21.5866 932.402 21.4673 931.922 21.4673C931.421 21.4673 931.027 21.5784 930.739 21.8004C930.454 22.0192 930.256 22.2628 930.147 22.5312L928.75 22.2131C928.916 21.7491 929.158 21.3745 929.476 21.0895C929.797 20.8011 930.167 20.5923 930.585 20.4631C931.002 20.3305 931.441 20.2642 931.902 20.2642C932.207 20.2642 932.53 20.3007 932.871 20.3736C933.216 20.4432 933.538 20.5724 933.836 20.7614C934.138 20.9503 934.384 21.2204 934.577 21.5717C934.769 21.9197 934.865 22.3722 934.865 22.929V28H933.413V26.956H933.354C933.258 27.1482 933.113 27.3371 932.921 27.5227C932.729 27.7083 932.482 27.8625 932.18 27.9851C931.879 28.1077 931.518 28.169 931.097 28.169ZM931.42 26.9759C931.831 26.9759 932.182 26.8946 932.474 26.7322C932.769 26.5698 932.992 26.3577 933.145 26.0959C933.301 25.8307 933.379 25.5473 933.379 25.2457V24.2614C933.326 24.3144 933.223 24.3641 933.07 24.4105C932.921 24.4536 932.75 24.4917 932.558 24.5249C932.366 24.5547 932.179 24.5829 931.996 24.6094C931.814 24.6326 931.662 24.6525 931.539 24.669C931.251 24.7055 930.987 24.7668 930.749 24.853C930.513 24.9392 930.324 25.0634 930.182 25.2259C930.043 25.3849 929.973 25.5971 929.973 25.8622C929.973 26.2301 930.109 26.5085 930.381 26.6974C930.652 26.883 930.999 26.9759 931.42 26.9759ZM940.41 20.3636V21.5568H936.238V20.3636H940.41ZM937.357 18.5341H938.844V25.7578C938.844 26.0462 938.887 26.2633 938.973 26.4091C939.059 26.5516 939.17 26.6494 939.306 26.7024C939.445 26.7521 939.596 26.777 939.758 26.777C939.878 26.777 939.982 26.7687 940.072 26.7521C940.161 26.7356 940.231 26.7223 940.28 26.7124L940.549 27.9403C940.463 27.9735 940.34 28.0066 940.181 28.0398C940.022 28.0762 939.823 28.0961 939.584 28.0994C939.193 28.1061 938.829 28.0365 938.491 27.8906C938.153 27.7448 937.879 27.5194 937.67 27.2145C937.461 26.9096 937.357 26.5268 937.357 26.0661V18.5341ZM945.189 28.1541C944.473 28.1541 943.848 27.9901 943.314 27.6619C942.781 27.3338 942.366 26.8748 942.071 26.2848C941.776 25.6948 941.629 25.0054 941.629 24.2166C941.629 23.4245 941.776 22.7318 942.071 22.1385C942.366 21.5452 942.781 21.0845 943.314 20.7564C943.848 20.4283 944.473 20.2642 945.189 20.2642C945.904 20.2642 946.529 20.4283 947.063 20.7564C947.596 21.0845 948.011 21.5452 948.306 22.1385C948.601 22.7318 948.748 23.4245 948.748 24.2166C948.748 25.0054 948.601 25.6948 948.306 26.2848C948.011 26.8748 947.596 27.3338 947.063 27.6619C946.529 27.9901 945.904 28.1541 945.189 28.1541ZM945.194 26.9062C945.658 26.9062 946.042 26.7836 946.347 26.5384C946.652 26.2931 946.877 25.9666 947.023 25.5589C947.172 25.1513 947.247 24.7022 947.247 24.2116C947.247 23.7244 947.172 23.277 947.023 22.8693C946.877 22.4583 946.652 22.1286 946.347 21.88C946.042 21.6314 945.658 21.5071 945.194 21.5071C944.726 21.5071 944.338 21.6314 944.03 21.88C943.725 22.1286 943.498 22.4583 943.349 22.8693C943.203 23.277 943.13 23.7244 943.13 24.2116C943.13 24.7022 943.203 25.1513 943.349 25.5589C943.498 25.9666 943.725 26.2931 944.03 26.5384C944.338 26.7836 944.726 26.9062 945.194 26.9062ZM950.407 28V20.3636H951.844V21.5767H951.924C952.063 21.1657 952.308 20.8426 952.66 20.6072C953.014 20.3686 953.415 20.2493 953.863 20.2493C953.956 20.2493 954.065 20.2526 954.191 20.2592C954.32 20.2659 954.421 20.2741 954.494 20.2841V21.706C954.434 21.6894 954.328 21.6712 954.176 21.6513C954.023 21.6281 953.871 21.6165 953.719 21.6165C953.367 21.6165 953.054 21.6911 952.779 21.8402C952.507 21.986 952.292 22.1899 952.133 22.4517C951.974 22.7102 951.894 23.0052 951.894 23.3366V28H950.407Z" fill="#CBE5FF"/>
<path d="M851.441 19.3127C850.924 18.0745 850.066 17.0111 848.969 16.2479C847.871 15.4846 846.581 15.0532 845.248 15.0046C843.916 14.9559 842.597 15.292 841.448 15.9733C840.299 16.6545 839.367 17.6524 838.762 18.8497C838.157 20.0468 837.904 21.3934 838.033 22.7305C838.162 24.0677 838.667 25.3401 839.49 26.3976L839.538 26.4561L844.222 31.6513C844.421 31.8733 844.705 32 845.002 32C845.299 32 845.582 31.8733 845.782 31.6513L850.465 26.4561L850.514 26.3976C851.282 25.4077 851.774 24.229 851.939 22.9837C852.103 21.7381 851.935 20.4707 851.451 19.3129L851.441 19.3127ZM844.999 24.8251C844.303 24.8251 843.636 24.5468 843.144 24.0511C842.652 23.5554 842.376 22.8832 842.376 22.1822C842.376 21.4813 842.652 20.809 843.144 20.3133C843.636 19.8176 844.303 19.5392 844.999 19.5392C845.694 19.5392 846.361 19.8177 846.853 20.3133C847.345 20.809 847.621 21.4813 847.621 22.1822C847.621 22.8832 847.345 23.5554 846.853 24.0511C846.362 24.5468 845.694 24.8251 844.999 24.8251Z" fill="#CBE5FF"/>
<path d="M986.119 28V17.8182H989.748C990.537 17.8182 991.191 17.9541 991.712 18.2259C992.235 18.4976 992.626 18.8738 992.885 19.3544C993.143 19.8317 993.273 20.3835 993.273 21.0099C993.273 21.633 993.142 22.1816 992.88 22.6555C992.621 23.1262 992.23 23.4924 991.707 23.7543C991.186 24.0161 990.532 24.147 989.743 24.147H986.994V22.8246H989.604C990.101 22.8246 990.505 22.7533 990.817 22.6108C991.132 22.4683 991.362 22.2611 991.508 21.9893C991.654 21.7176 991.727 21.3911 991.727 21.0099C991.727 20.6255 991.652 20.2924 991.503 20.0107C991.357 19.7289 991.127 19.5135 990.812 19.3643C990.5 19.2119 990.091 19.1357 989.584 19.1357H987.655V28H986.119ZM991.145 23.4062L993.661 28H991.911L989.445 23.4062H991.145ZM998.218 28.1541C997.466 28.1541 996.818 27.9934 996.274 27.6719C995.734 27.3471 995.316 26.8913 995.021 26.3047C994.73 25.7147 994.584 25.0237 994.584 24.2315C994.584 23.4493 994.73 22.7599 995.021 22.1634C995.316 21.5668 995.727 21.1011 996.254 20.7663C996.785 20.4316 997.405 20.2642 998.114 20.2642C998.545 20.2642 998.962 20.3355 999.367 20.478C999.771 20.6205 1000.13 20.8442 1000.46 21.1491C1000.78 21.4541 1001.03 21.8501 1001.22 22.3374C1001.4 22.8213 1001.49 23.4096 1001.49 24.1023V24.6293H995.424V23.5156H1000.04C1000.04 23.1245 999.958 22.7782 999.799 22.4766C999.64 22.1716 999.416 21.9313 999.128 21.7557C998.843 21.58 998.508 21.4922 998.124 21.4922C997.706 21.4922 997.342 21.5949 997.03 21.8004C996.722 22.0026 996.483 22.2678 996.314 22.5959C996.148 22.9207 996.066 23.2737 996.066 23.6548V24.5249C996.066 25.0353 996.155 25.4695 996.334 25.8274C996.516 26.1854 996.77 26.4588 997.095 26.6477C997.419 26.8333 997.799 26.9261 998.233 26.9261C998.515 26.9261 998.772 26.8864 999.004 26.8068C999.236 26.724 999.436 26.6013 999.605 26.4389C999.774 26.2765 999.904 26.076 999.993 25.8374L1001.4 26.0909C1001.29 26.5052 1001.09 26.8681 1000.79 27.1797C1000.51 27.4879 1000.14 27.7282 999.705 27.9006C999.271 28.0696 998.775 28.1541 998.218 28.1541ZM1008.87 22.228L1007.52 22.4666C1007.46 22.2943 1007.37 22.1302 1007.25 21.9744C1007.13 21.8187 1006.97 21.6911 1006.76 21.5916C1006.56 21.4922 1006.3 21.4425 1005.99 21.4425C1005.57 21.4425 1005.22 21.5369 1004.94 21.7259C1004.66 21.9115 1004.52 22.1518 1004.52 22.4467C1004.52 22.7019 1004.61 22.9074 1004.8 23.0632C1004.99 23.219 1005.29 23.3466 1005.71 23.446L1006.93 23.7244C1007.63 23.8868 1008.15 24.1371 1008.5 24.4751C1008.84 24.8132 1009.02 25.2524 1009.02 25.7926C1009.02 26.25 1008.88 26.6577 1008.62 27.0156C1008.36 27.3703 1007.99 27.6487 1007.52 27.8509C1007.05 28.053 1006.51 28.1541 1005.89 28.1541C1005.04 28.1541 1004.34 27.9718 1003.8 27.6072C1003.26 27.2393 1002.93 26.7173 1002.81 26.0412L1004.24 25.8224C1004.33 26.197 1004.52 26.4804 1004.79 26.6726C1005.07 26.8615 1005.44 26.956 1005.88 26.956C1006.37 26.956 1006.76 26.8549 1007.05 26.6527C1007.34 26.4472 1007.49 26.197 1007.49 25.902C1007.49 25.6634 1007.4 25.4628 1007.22 25.3004C1007.04 25.138 1006.77 25.0154 1006.41 24.9325L1005.12 24.6491C1004.4 24.4867 1003.88 24.2282 1003.54 23.8736C1003.2 23.5189 1003.03 23.0698 1003.03 22.5263C1003.03 22.0755 1003.16 21.6811 1003.41 21.343C1003.66 21.005 1004.01 20.7415 1004.45 20.5526C1004.9 20.3603 1005.4 20.2642 1005.98 20.2642C1006.8 20.2642 1007.45 20.4432 1007.93 20.8011C1008.4 21.1558 1008.71 21.6314 1008.87 22.228ZM1013.87 28.1541C1013.15 28.1541 1012.53 27.9901 1011.99 27.6619C1011.46 27.3338 1011.04 26.8748 1010.75 26.2848C1010.45 25.6948 1010.31 25.0054 1010.31 24.2166C1010.31 23.4245 1010.45 22.7318 1010.75 22.1385C1011.04 21.5452 1011.46 21.0845 1011.99 20.7564C1012.53 20.4283 1013.15 20.2642 1013.87 20.2642C1014.58 20.2642 1015.21 20.4283 1015.74 20.7564C1016.27 21.0845 1016.69 21.5452 1016.98 22.1385C1017.28 22.7318 1017.43 23.4245 1017.43 24.2166C1017.43 25.0054 1017.28 25.6948 1016.98 26.2848C1016.69 26.8748 1016.27 27.3338 1015.74 27.6619C1015.21 27.9901 1014.58 28.1541 1013.87 28.1541ZM1013.87 26.9062C1014.34 26.9062 1014.72 26.7836 1015.02 26.5384C1015.33 26.2931 1015.55 25.9666 1015.7 25.5589C1015.85 25.1513 1015.92 24.7022 1015.92 24.2116C1015.92 23.7244 1015.85 23.277 1015.7 22.8693C1015.55 22.4583 1015.33 22.1286 1015.02 21.88C1014.72 21.6314 1014.34 21.5071 1013.87 21.5071C1013.4 21.5071 1013.02 21.6314 1012.71 21.88C1012.4 22.1286 1012.18 22.4583 1012.03 22.8693C1011.88 23.277 1011.81 23.7244 1011.81 24.2116C1011.81 24.7022 1011.88 25.1513 1012.03 25.5589C1012.18 25.9666 1012.4 26.2931 1012.71 26.5384C1013.02 26.7836 1013.4 26.9062 1013.87 26.9062ZM1023.92 24.8331V20.3636H1025.41V28H1023.95V26.6776H1023.87C1023.7 27.0852 1023.42 27.425 1023.03 27.6967C1022.64 27.9652 1022.16 28.0994 1021.59 28.0994C1021.1 28.0994 1020.67 27.9917 1020.29 27.7763C1019.91 27.5575 1019.62 27.2344 1019.4 26.8068C1019.19 26.3793 1019.09 25.8506 1019.09 25.2209V20.3636H1020.57V25.0419C1020.57 25.5623 1020.72 25.9766 1021 26.2848C1021.29 26.593 1021.67 26.7472 1022.13 26.7472C1022.41 26.7472 1022.68 26.6776 1022.96 26.5384C1023.24 26.3991 1023.47 26.1887 1023.65 25.907C1023.83 25.6252 1023.93 25.2673 1023.92 24.8331ZM1027.41 28V20.3636H1028.85V21.5767H1028.93C1029.07 21.1657 1029.31 20.8426 1029.66 20.6072C1030.02 20.3686 1030.42 20.2493 1030.87 20.2493C1030.96 20.2493 1031.07 20.2526 1031.19 20.2592C1031.32 20.2659 1031.43 20.2741 1031.5 20.2841V21.706C1031.44 21.6894 1031.33 21.6712 1031.18 21.6513C1031.03 21.6281 1030.87 21.6165 1030.72 21.6165C1030.37 21.6165 1030.06 21.6911 1029.78 21.8402C1029.51 21.986 1029.3 22.1899 1029.14 22.4517C1028.98 22.7102 1028.9 23.0052 1028.9 23.3366V28H1027.41ZM1035.73 28.1541C1034.99 28.1541 1034.35 27.9867 1033.82 27.652C1033.29 27.3139 1032.88 26.8482 1032.6 26.255C1032.31 25.6617 1032.17 24.9822 1032.17 24.2166C1032.17 23.4411 1032.31 22.7566 1032.61 22.1634C1032.9 21.5668 1033.31 21.1011 1033.84 20.7663C1034.37 20.4316 1034.99 20.2642 1035.71 20.2642C1036.29 20.2642 1036.81 20.3719 1037.26 20.5874C1037.72 20.7995 1038.08 21.0978 1038.36 21.4822C1038.64 21.8667 1038.81 22.3158 1038.86 22.8295H1037.42C1037.34 22.4716 1037.16 22.1634 1036.87 21.9048C1036.59 21.6463 1036.21 21.517 1035.74 21.517C1035.32 21.517 1034.96 21.6264 1034.65 21.8452C1034.34 22.0606 1034.1 22.3688 1033.93 22.7699C1033.76 23.1676 1033.67 23.6383 1033.67 24.1818C1033.67 24.7386 1033.75 25.2192 1033.92 25.6236C1034.09 26.0279 1034.33 26.3411 1034.64 26.5632C1034.95 26.7853 1035.32 26.8963 1035.74 26.8963C1036.02 26.8963 1036.27 26.8449 1036.5 26.7422C1036.74 26.6361 1036.93 26.4853 1037.08 26.2898C1037.24 26.0942 1037.35 25.8589 1037.42 25.5838H1038.86C1038.81 26.0777 1038.65 26.5185 1038.38 26.9062C1038.11 27.294 1037.75 27.599 1037.3 27.821C1036.86 28.0431 1036.33 28.1541 1035.73 28.1541ZM1043.75 28.1541C1042.99 28.1541 1042.35 27.9934 1041.8 27.6719C1041.26 27.3471 1040.84 26.8913 1040.55 26.3047C1040.26 25.7147 1040.11 25.0237 1040.11 24.2315C1040.11 23.4493 1040.26 22.7599 1040.55 22.1634C1040.84 21.5668 1041.25 21.1011 1041.78 20.7663C1042.31 20.4316 1042.93 20.2642 1043.64 20.2642C1044.07 20.2642 1044.49 20.3355 1044.89 20.478C1045.3 20.6205 1045.66 20.8442 1045.98 21.1491C1046.3 21.4541 1046.56 21.8501 1046.74 22.3374C1046.93 22.8213 1047.02 23.4096 1047.02 24.1023V24.6293H1040.95V23.5156H1045.57C1045.57 23.1245 1045.49 22.7782 1045.33 22.4766C1045.17 22.1716 1044.94 21.9313 1044.66 21.7557C1044.37 21.58 1044.04 21.4922 1043.65 21.4922C1043.23 21.4922 1042.87 21.5949 1042.56 21.8004C1042.25 22.0026 1042.01 22.2678 1041.84 22.5959C1041.68 22.9207 1041.59 23.2737 1041.59 23.6548V24.5249C1041.59 25.0353 1041.68 25.4695 1041.86 25.8274C1042.04 26.1854 1042.3 26.4588 1042.62 26.6477C1042.95 26.8333 1043.33 26.9261 1043.76 26.9261C1044.04 26.9261 1044.3 26.8864 1044.53 26.8068C1044.76 26.724 1044.96 26.6013 1045.13 26.4389C1045.3 26.2765 1045.43 26.076 1045.52 25.8374L1046.93 26.0909C1046.81 26.5052 1046.61 26.8681 1046.32 27.1797C1046.03 27.4879 1045.67 27.7282 1045.23 27.9006C1044.8 28.0696 1044.3 28.1541 1043.75 28.1541ZM1054.39 22.228L1053.05 22.4666C1052.99 22.2943 1052.9 22.1302 1052.78 21.9744C1052.66 21.8187 1052.5 21.6911 1052.29 21.5916C1052.08 21.4922 1051.83 21.4425 1051.52 21.4425C1051.1 21.4425 1050.75 21.5369 1050.47 21.7259C1050.18 21.9115 1050.04 22.1518 1050.04 22.4467C1050.04 22.7019 1050.14 22.9074 1050.33 23.0632C1050.52 23.219 1050.82 23.3466 1051.24 23.446L1052.45 23.7244C1053.16 23.8868 1053.68 24.1371 1054.03 24.4751C1054.37 24.8132 1054.54 25.2524 1054.54 25.7926C1054.54 26.25 1054.41 26.6577 1054.14 27.0156C1053.88 27.3703 1053.52 27.6487 1053.05 27.8509C1052.58 28.053 1052.04 28.1541 1051.42 28.1541C1050.57 28.1541 1049.87 27.9718 1049.33 27.6072C1048.79 27.2393 1048.46 26.7173 1048.33 26.0412L1049.77 25.8224C1049.86 26.197 1050.04 26.4804 1050.32 26.6726C1050.6 26.8615 1050.96 26.956 1051.41 26.956C1051.9 26.956 1052.29 26.8549 1052.58 26.6527C1052.87 26.4472 1053.02 26.197 1053.02 25.902C1053.02 25.6634 1052.93 25.4628 1052.75 25.3004C1052.57 25.138 1052.3 25.0154 1051.94 24.9325L1050.64 24.6491C1049.93 24.4867 1049.41 24.2282 1049.06 23.8736C1048.73 23.5189 1048.56 23.0698 1048.56 22.5263C1048.56 22.0755 1048.68 21.6811 1048.93 21.343C1049.19 21.005 1049.53 20.7415 1049.98 20.5526C1050.42 20.3603 1050.93 20.2642 1051.5 20.2642C1052.33 20.2642 1052.98 20.4432 1053.45 20.8011C1053.93 21.1558 1054.24 21.6314 1054.39 22.228Z" fill="#CBE5FF"/>
<path d="M1116.84 17.8182V28H1115.3V19.3594H1115.24L1112.81 20.9503V19.4787L1115.35 17.8182H1116.84ZM1123.14 28.1392C1122.46 28.1392 1121.85 28.0215 1121.31 27.7862C1120.78 27.5509 1120.36 27.2244 1120.04 26.8068C1119.74 26.3859 1119.57 25.8987 1119.55 25.3452H1121.11C1121.13 25.6468 1121.23 25.9086 1121.41 26.1307C1121.6 26.3494 1121.84 26.5185 1122.14 26.6378C1122.44 26.7571 1122.77 26.8168 1123.13 26.8168C1123.53 26.8168 1123.89 26.7472 1124.2 26.608C1124.51 26.4687 1124.75 26.2749 1124.93 26.0263C1125.1 25.7744 1125.19 25.4844 1125.19 25.1562C1125.19 24.8149 1125.1 24.5149 1124.93 24.2564C1124.75 23.9946 1124.5 23.7891 1124.17 23.6399C1123.83 23.4908 1123.43 23.4162 1122.96 23.4162H1122.1V22.1634H1122.96C1123.34 22.1634 1123.67 22.0954 1123.96 21.9595C1124.25 21.8236 1124.47 21.6347 1124.63 21.3928C1124.8 21.1475 1124.88 20.8608 1124.88 20.5327C1124.88 20.2178 1124.81 19.9444 1124.66 19.7124C1124.52 19.477 1124.32 19.2931 1124.07 19.1605C1123.81 19.0279 1123.51 18.9616 1123.16 18.9616C1122.83 18.9616 1122.52 19.023 1122.23 19.1456C1121.95 19.2649 1121.71 19.4373 1121.54 19.6626C1121.36 19.8847 1121.26 20.1515 1121.25 20.4631H1119.76C1119.78 19.9129 1119.94 19.429 1120.25 19.0114C1120.56 18.5937 1120.97 18.2673 1121.48 18.032C1121.99 17.7966 1122.56 17.679 1123.18 17.679C1123.83 17.679 1124.4 17.8066 1124.87 18.0618C1125.35 18.3137 1125.72 18.6501 1125.98 19.071C1126.24 19.492 1126.37 19.9527 1126.36 20.4531C1126.37 21.0232 1126.21 21.5071 1125.89 21.9048C1125.57 22.3026 1125.14 22.5694 1124.61 22.7053V22.7848C1125.29 22.8875 1125.81 23.156 1126.18 23.5902C1126.56 24.0244 1126.74 24.563 1126.74 25.206C1126.74 25.7661 1126.59 26.2682 1126.27 26.7124C1125.96 27.1565 1125.54 27.5062 1125 27.7614C1124.46 28.0133 1123.84 28.1392 1123.14 28.1392ZM1132.16 28.169C1131.38 28.1657 1130.71 27.9586 1130.15 27.5476C1129.59 27.1366 1129.17 26.5384 1128.87 25.7528C1128.58 24.9673 1128.43 24.0211 1128.43 22.9141C1128.43 21.8104 1128.58 20.8674 1128.87 20.0852C1129.17 19.303 1129.6 18.7064 1130.16 18.2955C1130.72 17.8845 1131.39 17.679 1132.16 17.679C1132.94 17.679 1133.61 17.8861 1134.17 18.3004C1134.73 18.7114 1135.15 19.308 1135.45 20.0902C1135.74 20.8691 1135.89 21.8104 1135.89 22.9141C1135.89 24.0244 1135.75 24.9723 1135.45 25.7578C1135.16 26.54 1134.73 27.1383 1134.17 27.5526C1133.62 27.9635 1132.95 28.169 1132.16 28.169ZM1132.16 26.8416C1132.85 26.8416 1133.39 26.5052 1133.78 25.8324C1134.17 25.1596 1134.37 24.1868 1134.37 22.9141C1134.37 22.0689 1134.28 21.3546 1134.1 20.7713C1133.92 20.1847 1133.67 19.7405 1133.34 19.4389C1133.01 19.134 1132.62 18.9815 1132.16 18.9815C1131.48 18.9815 1130.94 19.3196 1130.55 19.9957C1130.16 20.6719 1129.96 21.6446 1129.96 22.9141C1129.96 23.7625 1130.05 24.4801 1130.22 25.0668C1130.4 25.6501 1130.65 26.0926 1130.98 26.3942C1131.31 26.6925 1131.7 26.8416 1132.16 26.8416ZM1141.2 28.169C1140.42 28.1657 1139.75 27.9586 1139.19 27.5476C1138.63 27.1366 1138.21 26.5384 1137.91 25.7528C1137.62 24.9673 1137.47 24.0211 1137.47 22.9141C1137.47 21.8104 1137.62 20.8674 1137.91 20.0852C1138.21 19.303 1138.64 18.7064 1139.19 18.2955C1139.75 17.8845 1140.42 17.679 1141.2 17.679C1141.98 17.679 1142.65 17.8861 1143.21 18.3004C1143.76 18.7114 1144.19 19.308 1144.48 20.0902C1144.78 20.8691 1144.93 21.8104 1144.93 22.9141C1144.93 24.0244 1144.78 24.9723 1144.49 25.7578C1144.19 26.54 1143.77 27.1383 1143.21 27.5526C1142.65 27.9635 1141.98 28.169 1141.2 28.169ZM1141.2 26.8416C1141.89 26.8416 1142.43 26.5052 1142.82 25.8324C1143.21 25.1596 1143.4 24.1868 1143.4 22.9141C1143.4 22.0689 1143.31 21.3546 1143.14 20.7713C1142.96 20.1847 1142.71 19.7405 1142.38 19.4389C1142.05 19.134 1141.66 18.9815 1141.2 18.9815C1140.52 18.9815 1139.98 19.3196 1139.59 19.9957C1139.2 20.6719 1139 21.6446 1138.99 22.9141C1138.99 23.7625 1139.08 24.4801 1139.26 25.0668C1139.44 25.6501 1139.69 26.0926 1140.02 26.3942C1140.35 26.6925 1140.74 26.8416 1141.2 26.8416ZM1150.74 28L1155.19 19.2102V19.1357H1150.05V17.8182H1156.78V19.1804L1152.35 28H1150.74ZM1161.82 28.1392C1161.14 28.1392 1160.53 28.0215 1159.99 27.7862C1159.46 27.5509 1159.03 27.2244 1158.72 26.8068C1158.41 26.3859 1158.25 25.8987 1158.22 25.3452H1159.79C1159.81 25.6468 1159.91 25.9086 1160.09 26.1307C1160.27 26.3494 1160.52 26.5185 1160.81 26.6378C1161.11 26.7571 1161.44 26.8168 1161.81 26.8168C1162.21 26.8168 1162.56 26.7472 1162.87 26.608C1163.18 26.4687 1163.43 26.2749 1163.6 26.0263C1163.78 25.7744 1163.87 25.4844 1163.87 25.1562C1163.87 24.8149 1163.78 24.5149 1163.6 24.2564C1163.43 23.9946 1163.18 23.7891 1162.84 23.6399C1162.51 23.4908 1162.11 23.4162 1161.64 23.4162H1160.78V22.1634H1161.64C1162.02 22.1634 1162.35 22.0954 1162.63 21.9595C1162.92 21.8236 1163.15 21.6347 1163.31 21.3928C1163.47 21.1475 1163.55 20.8608 1163.55 20.5327C1163.55 20.2178 1163.48 19.9444 1163.34 19.7124C1163.2 19.477 1163 19.2931 1162.74 19.1605C1162.49 19.0279 1162.19 18.9616 1161.84 18.9616C1161.51 18.9616 1161.2 19.023 1160.91 19.1456C1160.62 19.2649 1160.39 19.4373 1160.21 19.6626C1160.03 19.8847 1159.94 20.1515 1159.92 20.4631H1158.44C1158.45 19.9129 1158.62 19.429 1158.93 19.0114C1159.24 18.5937 1159.65 18.2673 1160.16 18.032C1160.67 17.7966 1161.24 17.679 1161.86 17.679C1162.51 17.679 1163.08 17.8066 1163.55 18.0618C1164.03 18.3137 1164.39 18.6501 1164.65 19.071C1164.91 19.492 1165.04 19.9527 1165.04 20.4531C1165.04 21.0232 1164.88 21.5071 1164.56 21.9048C1164.25 22.3026 1163.82 22.5694 1163.29 22.7053V22.7848C1163.97 22.8875 1164.49 23.156 1164.86 23.5902C1165.24 24.0244 1165.42 24.563 1165.42 25.206C1165.42 25.7661 1165.27 26.2682 1164.95 26.7124C1164.64 27.1565 1164.21 27.5062 1163.67 27.7614C1163.13 28.0133 1162.52 28.1392 1161.82 28.1392ZM1170.74 28.1392C1170.03 28.1392 1169.4 28.0166 1168.85 27.7713C1168.31 27.526 1167.88 27.188 1167.57 26.7571C1167.26 26.3262 1167.11 25.8357 1167.11 25.2855C1167.11 24.8546 1167.2 24.4586 1167.38 24.0973C1167.56 23.7327 1167.81 23.4295 1168.12 23.1875C1168.43 22.9422 1168.78 22.7865 1169.16 22.7202V22.6605C1168.66 22.5379 1168.25 22.2661 1167.94 21.8452C1167.64 21.4242 1167.49 20.9403 1167.49 20.3935C1167.49 19.8731 1167.63 19.4091 1167.9 19.0014C1168.19 18.5904 1168.57 18.2673 1169.06 18.032C1169.55 17.7966 1170.11 17.679 1170.74 17.679C1171.36 17.679 1171.91 17.7983 1172.4 18.0369C1172.89 18.2723 1173.28 18.5954 1173.56 19.0064C1173.84 19.4141 1173.98 19.8764 1173.98 20.3935C1173.98 20.9403 1173.83 21.4242 1173.52 21.8452C1173.21 22.2661 1172.81 22.5379 1172.31 22.6605V22.7202C1172.7 22.7865 1173.04 22.9422 1173.34 23.1875C1173.65 23.4295 1173.9 23.7327 1174.08 24.0973C1174.26 24.4586 1174.36 24.8546 1174.36 25.2855C1174.36 25.8357 1174.2 26.3262 1173.9 26.7571C1173.59 27.188 1173.16 27.526 1172.61 27.7713C1172.07 28.0166 1171.44 28.1392 1170.74 28.1392ZM1170.74 26.8814C1171.16 26.8814 1171.52 26.8118 1171.83 26.6726C1172.14 26.5301 1172.38 26.3329 1172.55 26.081C1172.72 25.8258 1172.8 25.5275 1172.81 25.1861C1172.8 24.8314 1172.71 24.5182 1172.53 24.2464C1172.35 23.9747 1172.11 23.7609 1171.8 23.6051C1171.49 23.4493 1171.14 23.3714 1170.74 23.3714C1170.34 23.3714 1169.98 23.4493 1169.67 23.6051C1169.36 23.7609 1169.11 23.9747 1168.93 24.2464C1168.75 24.5182 1168.67 24.8314 1168.67 25.1861C1168.67 25.5275 1168.75 25.8258 1168.91 26.081C1169.08 26.3329 1169.32 26.5301 1169.63 26.6726C1169.95 26.8118 1170.31 26.8814 1170.74 26.8814ZM1170.74 22.1435C1171.08 22.1435 1171.38 22.0755 1171.64 21.9396C1171.9 21.8037 1172.11 21.6148 1172.25 21.3729C1172.41 21.1309 1172.48 20.8475 1172.49 20.5227C1172.48 20.2045 1172.41 19.9261 1172.26 19.6875C1172.11 19.4489 1171.91 19.2649 1171.65 19.1357C1171.39 19.0031 1171.08 18.9368 1170.74 18.9368C1170.39 18.9368 1170.08 19.0031 1169.81 19.1357C1169.55 19.2649 1169.35 19.4489 1169.2 19.6875C1169.06 19.9261 1168.98 20.2045 1168.99 20.5227C1168.98 20.8475 1169.06 21.1309 1169.21 21.3729C1169.36 21.6148 1169.56 21.8037 1169.82 21.9396C1170.09 22.0755 1170.39 22.1435 1170.74 22.1435ZM1183.29 28.1392C1182.58 28.1392 1181.95 28.0166 1181.4 27.7713C1180.86 27.526 1180.43 27.188 1180.12 26.7571C1179.81 26.3262 1179.66 25.8357 1179.66 25.2855C1179.66 24.8546 1179.75 24.4586 1179.93 24.0973C1180.11 23.7327 1180.36 23.4295 1180.67 23.1875C1180.98 22.9422 1181.33 22.7865 1181.71 22.7202V22.6605C1181.21 22.5379 1180.8 22.2661 1180.49 21.8452C1180.19 21.4242 1180.04 20.9403 1180.04 20.3935C1180.04 19.8731 1180.18 19.4091 1180.46 19.0014C1180.74 18.5904 1181.12 18.2673 1181.61 18.032C1182.1 17.7966 1182.66 17.679 1183.29 17.679C1183.91 17.679 1184.46 17.7983 1184.95 18.0369C1185.44 18.2723 1185.83 18.5954 1186.11 19.0064C1186.39 19.4141 1186.53 19.8764 1186.54 20.3935C1186.53 20.9403 1186.38 21.4242 1186.07 21.8452C1185.76 22.2661 1185.36 22.5379 1184.86 22.6605V22.7202C1185.25 22.7865 1185.59 22.9422 1185.89 23.1875C1186.2 23.4295 1186.45 23.7327 1186.63 24.0973C1186.82 24.4586 1186.91 24.8546 1186.91 25.2855C1186.91 25.8357 1186.75 26.3262 1186.45 26.7571C1186.14 27.188 1185.71 27.526 1185.16 27.7713C1184.62 28.0166 1183.99 28.1392 1183.29 28.1392ZM1183.29 26.8814C1183.71 26.8814 1184.07 26.8118 1184.38 26.6726C1184.69 26.5301 1184.93 26.3329 1185.1 26.081C1185.27 25.8258 1185.35 25.5275 1185.36 25.1861C1185.35 24.8314 1185.26 24.5182 1185.08 24.2464C1184.9 23.9747 1184.66 23.7609 1184.35 23.6051C1184.04 23.4493 1183.69 23.3714 1183.29 23.3714C1182.89 23.3714 1182.53 23.4493 1182.22 23.6051C1181.91 23.7609 1181.66 23.9747 1181.48 24.2464C1181.31 24.5182 1181.22 24.8314 1181.22 25.1861C1181.22 25.5275 1181.3 25.8258 1181.46 26.081C1181.63 26.3329 1181.87 26.5301 1182.19 26.6726C1182.5 26.8118 1182.86 26.8814 1183.29 26.8814ZM1183.29 22.1435C1183.63 22.1435 1183.93 22.0755 1184.19 21.9396C1184.45 21.8037 1184.66 21.6148 1184.81 21.3729C1184.96 21.1309 1185.04 20.8475 1185.04 20.5227C1185.04 20.2045 1184.96 19.9261 1184.81 19.6875C1184.66 19.4489 1184.46 19.2649 1184.2 19.1357C1183.94 19.0031 1183.63 18.9368 1183.29 18.9368C1182.94 18.9368 1182.63 19.0031 1182.36 19.1357C1182.1 19.2649 1181.9 19.4489 1181.75 19.6875C1181.61 19.9261 1181.54 20.2045 1181.54 20.5227C1181.54 20.8475 1181.61 21.1309 1181.76 21.3729C1181.91 21.6148 1182.11 21.8037 1182.37 21.9396C1182.64 22.0755 1182.94 22.1435 1183.29 22.1435ZM1192.13 28.1392C1191.42 28.1392 1190.79 28.0166 1190.25 27.7713C1189.7 27.526 1189.28 27.188 1188.97 26.7571C1188.66 26.3262 1188.51 25.8357 1188.51 25.2855C1188.51 24.8546 1188.59 24.4586 1188.77 24.0973C1188.96 23.7327 1189.2 23.4295 1189.51 23.1875C1189.83 22.9422 1190.17 22.7865 1190.56 22.7202V22.6605C1190.05 22.5379 1189.65 22.2661 1189.34 21.8452C1189.04 21.4242 1188.88 20.9403 1188.89 20.3935C1188.88 19.8731 1189.02 19.4091 1189.3 19.0014C1189.58 18.5904 1189.97 18.2673 1190.46 18.032C1190.95 17.7966 1191.51 17.679 1192.13 17.679C1192.75 17.679 1193.31 17.7983 1193.8 18.0369C1194.29 18.2723 1194.67 18.5954 1194.95 19.0064C1195.24 19.4141 1195.38 19.8764 1195.38 20.3935C1195.38 20.9403 1195.22 21.4242 1194.91 21.8452C1194.61 22.2661 1194.2 22.5379 1193.71 22.6605V22.7202C1194.09 22.7865 1194.43 22.9422 1194.74 23.1875C1195.05 23.4295 1195.29 23.7327 1195.48 24.0973C1195.66 24.4586 1195.76 24.8546 1195.76 25.2855C1195.76 25.8357 1195.6 26.3262 1195.29 26.7571C1194.98 27.188 1194.56 27.526 1194.01 27.7713C1193.47 28.0166 1192.84 28.1392 1192.13 28.1392ZM1192.13 26.8814C1192.56 26.8814 1192.92 26.8118 1193.23 26.6726C1193.54 26.5301 1193.78 26.3329 1193.94 26.081C1194.11 25.8258 1194.2 25.5275 1194.2 25.1861C1194.2 24.8314 1194.11 24.5182 1193.92 24.2464C1193.75 23.9747 1193.5 23.7609 1193.19 23.6051C1192.89 23.4493 1192.53 23.3714 1192.13 23.3714C1191.73 23.3714 1191.38 23.4493 1191.07 23.6051C1190.75 23.7609 1190.51 23.9747 1190.33 24.2464C1190.15 24.5182 1190.06 24.8314 1190.07 25.1861C1190.06 25.5275 1190.14 25.8258 1190.31 26.081C1190.48 26.3329 1190.72 26.5301 1191.03 26.6726C1191.34 26.8118 1191.71 26.8814 1192.13 26.8814ZM1192.13 22.1435C1192.47 22.1435 1192.77 22.0755 1193.03 21.9396C1193.3 21.8037 1193.5 21.6148 1193.65 21.3729C1193.8 21.1309 1193.88 20.8475 1193.88 20.5227C1193.88 20.2045 1193.81 19.9261 1193.66 19.6875C1193.51 19.4489 1193.31 19.2649 1193.04 19.1357C1192.78 19.0031 1192.48 18.9368 1192.13 18.9368C1191.78 18.9368 1191.48 19.0031 1191.21 19.1357C1190.95 19.2649 1190.74 19.4489 1190.6 19.6875C1190.45 19.9261 1190.38 20.2045 1190.38 20.5227C1190.38 20.8475 1190.45 21.1309 1190.6 21.3729C1190.75 21.6148 1190.96 21.8037 1191.22 21.9396C1191.48 22.0755 1191.79 22.1435 1192.13 22.1435ZM1200.9 28.1392C1200.28 28.1392 1199.72 28.0199 1199.22 27.7812C1198.73 27.5393 1198.33 27.2079 1198.04 26.7869C1197.74 26.366 1197.58 25.8854 1197.56 25.3452H1199.06C1199.09 25.7827 1199.29 26.1423 1199.64 26.424C1199.99 26.7057 1200.41 26.8466 1200.9 26.8466C1201.29 26.8466 1201.64 26.7571 1201.94 26.5781C1202.24 26.3958 1202.48 26.1456 1202.66 25.8274C1202.83 25.5092 1202.92 25.1463 1202.92 24.7386C1202.92 24.3243 1202.83 23.9548 1202.65 23.63C1202.47 23.3052 1202.22 23.05 1201.91 22.8643C1201.6 22.6787 1201.24 22.5843 1200.84 22.581C1200.53 22.581 1200.22 22.634 1199.91 22.7401C1199.59 22.8461 1199.34 22.9853 1199.15 23.1577L1197.74 22.9489L1198.32 17.8182H1203.91V19.1357H1199.59L1199.27 21.9844H1199.33C1199.53 21.7921 1199.79 21.6314 1200.12 21.5021C1200.45 21.3729 1200.81 21.3082 1201.18 21.3082C1201.8 21.3082 1202.36 21.4557 1202.84 21.7507C1203.33 22.0457 1203.71 22.4484 1203.99 22.9588C1204.27 23.4659 1204.41 24.0492 1204.41 24.7088C1204.41 25.3684 1204.26 25.9567 1203.96 26.4737C1203.66 26.9908 1203.25 27.3984 1202.72 27.6967C1202.19 27.9917 1201.58 28.1392 1200.9 28.1392Z" fill="#CBE5FF"/>
<path fill-rule="evenodd" clip-rule="evenodd" d="M1091.18 24.7112C1090.03 23.0705 1088.94 21.9239 1090.22 20.716L1091.05 19.8212C1091.34 19.5124 1091.48 19.1898 1091.34 18.8946L1089.8 15.6832C1089.66 15.3881 1089.22 15.47 1088.83 15.6349L1086.61 16.5789C1084.84 17.8227 1087.32 23.7011 1089.06 26.1928C1090.8 28.6848 1095.48 33.0244 1097.26 31.7804L1098.9 30.0179C1099.19 29.7104 1099.42 29.3249 1099.19 29.0913L1096.7 26.5495C1096.47 26.3161 1096.12 26.338 1095.73 26.5014L1094.6 26.9734C1093.03 27.7615 1092.32 26.352 1091.18 24.7112L1091.18 24.7112Z" fill="#CBE5FF"/>
</svg>
