<svg width="126" height="114" viewBox="0 0 126 114" fill="none" xmlns="http://www.w3.org/2000/svg">
<path d="M100.36 112.776C101.829 113.769 103.826 113.001 104.263 111.295L106.446 102.695C106.618 102.02 106.115 101.372 105.414 101.372H90.7286C89.842 101.372 89.3527 102.391 89.895 103.079C93.5863 107.762 97.6613 110.951 100.36 112.776Z" fill="#D1E4F5"/>
<path d="M4.62675 61.3911C8.37088 68.8529 11.8504 76.9629 10.6068 84.8746C10.5009 85.5759 11.0434 86.2109 11.7578 86.2109H16.9176C17.288 86.2109 17.632 86.0389 17.8437 85.7479C24.1015 77.2806 32.5688 74.6346 32.5688 74.6346C40.2158 72.3325 48.4582 70.2951 53.7503 70.2951C63.6199 70.2951 65.975 78.3918 66.5042 81.4878C66.6231 82.1758 67.2184 82.6785 67.9197 82.6785C68.5549 82.6785 69.1634 82.4139 69.5867 81.9376L74.1777 76.8572C74.6408 76.3545 75.4741 76.6059 75.5801 77.2674C76.9956 86.1449 83.9813 95.3002 85.3043 96.0145C85.4233 96.0806 85.5556 96.1071 85.6879 96.1071H106.208C106.631 96.1071 106.975 95.7896 107.015 95.3794C107.743 87.6001 119.676 76.3677 124.24 72.3193C125.365 71.327 126 69.9114 126 68.4164V58.6127C126 58.4804 125.974 58.3615 125.921 58.2423L114.278 34.9572C114.199 34.7853 114.053 34.653 113.881 34.5736C104.342 30.2209 104.858 19.3589 105.044 17.3876C105.057 17.1892 105.004 16.9775 104.885 16.8187L102.08 13.1672C101.815 12.8232 101.313 12.7438 100.955 13.0084L99.6722 13.9346C99.6722 8.29852 97.3306 3.46952 96.0207 1.19393C95.6767 0.598577 94.8034 0.664728 94.5521 1.29977L91.8795 8.20591C91.84 8.29852 91.8266 8.40436 91.8266 8.49697C91.8134 14.2256 90.8609 18.0756 89.8421 20.5496C88.9295 22.7723 86.2173 23.5926 84.206 22.2828C80.2502 19.7029 73.8336 15.5089 71.6374 14.0801C71.2273 13.8155 71.148 13.2598 71.4522 12.8761L77.6308 5.37466C78.0673 4.84545 77.6837 4.03841 76.9956 4.03841H57.759C57.5473 4.03841 57.3489 4.11779 57.2033 4.26333L50.8927 10.2169C50.5619 10.5344 50.5486 11.0636 50.8793 11.3811L52.5464 13.0614C47.1749 14.8474 43.5632 11.2224 42.2666 9.59507C41.9623 9.22463 41.4067 9.18494 41.0626 9.51569L27.2635 22.812C27.1445 22.9311 27.0518 23.0766 27.0254 23.2486C25.5701 31.6497 9.3896 37.3651 4.32246 38.9527C3.38312 39.2438 2.66869 40.0112 2.44378 40.9637L0.0755859 50.8334C-0.0699456 51.4552 -0.0037949 52.1036 0.260808 52.6724C1.55736 55.4375 3.10529 58.3614 4.62675 61.3911Z" fill="#D1E4F5"/>
</svg>
