<svg width="156" height="40" viewBox="0 0 156 40" fill="none" xmlns="http://www.w3.org/2000/svg">
<path d="M34.2527 20.1897C34.4594 18.0558 33.8652 17.2845 32.315 17.2845C30.7648 17.2845 29.783 18.4414 29.783 20.1897L27.6386 39.1638H15.9864L18.1308 20.1897C18.3375 18.0558 17.7433 17.2845 16.1931 17.2845C14.6429 17.2845 13.6611 18.4414 13.4803 20.1897L11.3359 39.1638H0.0195312L3.32659 10.5227H14.4104L14.0228 13.8136H14.2295C16.1673 10.9084 19.2935 9.75141 23.1689 9.75141C26.2693 9.75141 29.0079 10.9084 30.3773 13.8136C32.315 10.9084 35.4412 9.75141 39.1358 9.75141C43.2179 9.75141 46.7317 11.6797 46.1375 17.1045L43.6055 39.3695H32.1341L34.2527 20.1897ZM75.6943 24.6376C74.7125 32.762 72.5939 39.7294 59.7532 39.7294C46.9126 39.7294 46.3183 32.7877 47.3001 24.6376C48.2819 16.4875 50.4005 9.54573 63.2411 9.54573C76.2885 9.75141 76.6761 16.7189 75.6943 24.6376ZM60.5283 33.1734C62.6727 33.1734 63.2411 31.4251 64.0421 24.6633C64.8172 17.9015 64.6363 16.1532 62.4919 16.1532C60.3475 16.1532 59.7791 17.9015 58.9781 24.6633C58.1772 31.4251 58.5648 33.1734 60.5283 33.1734ZM80.5515 0.829988H91.842L87.5532 39.1638H76.2885L80.5515 0.829988ZM93.7797 10.317H105.07L101.763 38.9581H90.4727L93.7797 10.317ZM94.9424 0.829988H106.233L105.458 8.18309H94.1673L94.9424 0.829988ZM111.297 7.02613C111.891 1.98694 115.586 0.444336 121.993 0.444336C123.543 0.444336 127.057 0.650018 128.013 0.650018L127.031 7.23182H125.481C122.949 7.23182 122.768 8.2088 122.768 9.36576L122.561 10.3427H126.644L125.869 17.1045H121.786L119.074 39.1638H107.215L109.927 17.1045H106.414L107.189 10.3427H110.909L111.297 7.02613Z" fill="#CE181E"/>
<path d="M150.934 9.39276C148.38 9.39276 146.607 7.45307 146.607 4.91854C146.607 2.20298 148.562 0.444336 150.934 0.444336C153.305 0.444336 155.26 2.20298 155.26 4.91854C155.26 7.6341 153.279 9.39276 150.934 9.39276ZM150.934 1.42711C148.979 1.42711 147.598 2.97886 147.598 5.12545C147.598 7.06513 148.979 8.82378 150.934 8.82378C152.888 8.82378 154.27 7.27203 154.27 5.12545C154.27 2.97886 152.888 1.42711 150.934 1.42711ZM150.152 7.6341H149.37V2.77196H151.142C152.315 2.77196 152.914 3.15989 152.914 4.14267C152.914 5.12544 152.315 5.30648 151.533 5.51338L152.914 7.65997H151.924L150.751 5.51338H149.969V7.65997H150.152V7.6341ZM150.934 4.73751C151.533 4.73751 152.106 4.73751 152.106 3.96164C152.106 3.3668 151.507 3.36679 151.116 3.36679H150.126V4.73751C150.152 4.73751 150.934 4.73751 150.934 4.73751ZM130.136 1.81505H141.525L140.535 10.3755H144.47L143.688 17.1774H139.753L138.372 30.031C138.163 31.9707 138.372 32.7466 140.326 32.7466C141.108 32.7466 141.708 32.7466 142.099 32.5397L141.317 39.3415C140.326 39.5484 137.381 39.7294 135.635 39.7294C129.172 39.7294 125.836 39.5225 126.618 32.9276L128.39 17.1515H124.846L125.628 10.3497H129.172L130.136 1.81505Z" fill="#CE181E"/>
</svg>
