<svg width="360" height="246" viewBox="0 0 360 246" fill="none" xmlns="http://www.w3.org/2000/svg">
<path fill-rule="evenodd" clip-rule="evenodd" d="M4 0C1.79086 0 0 1.79086 0 4V242C0 244.209 1.79087 246 4.00001 246H15.9528C27.9067 245.253 40.6399 236.934 49 225C56.0332 236.602 68.4452 245.237 81.8589 246H356C358.209 246 360 244.209 360 242V4C360 1.79086 358.209 0 356 0H4Z" fill="white"/>
<path d="M176.73 160.623H183.269V173.999H176.73V160.623Z" fill="#75A5D6"/>
<path d="M176.73 138.744H183.269V154.986H176.73V138.744Z" fill="#75A5D6"/>
<path d="M177.342 140.643L182.664 136.845L203.37 165.868L198.048 169.666L177.342 140.643Z" fill="#75A5D6"/>
<path d="M156.65 165.846L177.635 136.821L182.934 140.652L161.949 169.677L156.65 165.846Z" fill="#75A5D6"/>
<path d="M224.679 142.659H135.321C131.836 142.659 129 139.824 129 136.339V78.3205C129 74.8358 131.836 72 135.321 72H224.679C228.164 72 231 74.8356 231 78.3205V136.339C231 139.824 228.164 142.659 224.679 142.659ZM135.54 136.121H224.462V78.5371H135.54V136.121Z" fill="#75A5D6"/>
<path d="M162.525 111.225L169.494 107.211L162.525 103.197V111.225Z" fill="#75A5D6"/>
<path d="M186.538 88.5486H144.692C143.007 88.5486 141.641 89.9147 141.641 91.5997V122.825C141.641 124.51 143.007 125.876 144.692 125.876H186.538C188.223 125.876 189.589 124.51 189.589 122.825V91.5997C189.589 89.9146 188.223 88.5486 186.538 88.5486ZM176.584 109.669L161.107 118.585C159.076 119.696 156.897 118.17 156.86 116.13V98.2975C156.86 96.1593 159.249 94.7723 161.107 95.8425L176.584 104.759C178.442 105.828 178.442 108.599 176.584 109.669V109.669Z" fill="#75A5D6"/>
<path d="M198.963 88.7398H217.271V95.2781H198.963V88.7398Z" fill="#75A5D6"/>
<path d="M198.963 103.964H217.271V110.502H198.963V103.964Z" fill="#75A5D6"/>
<path d="M198.963 119.186H217.271V125.724H198.963V119.186Z" fill="#75A5D6"/>
</svg>
