<svg width="127" height="37" viewBox="0 0 127 37" fill="none" xmlns="http://www.w3.org/2000/svg">
<path fill-rule="evenodd" clip-rule="evenodd" d="M31.3033 0.0959473V26.318L13.978 0.0965113H0.453125V2.73637L2.06729 3.01164C6.21893 3.7094 6.30098 3.72406 6.30098 7.46894V36.1972H11.5482V8.68283C13.8215 12.1259 29.7498 36.1972 29.7498 36.1972H36.5544V0.0965113H31.3033V0.0959473Z" fill="#013C7F"/>
<path fill-rule="evenodd" clip-rule="evenodd" d="M80.4453 1.04602L79.234 2.01294L73.2678 6.77669V10.3855H68.8555V14.0456H73.2678V28.8312C73.2678 35.6409 77.505 36.1972 82.6309 36.1972C83.8929 36.1972 85.1997 35.9997 86.5345 35.7799L87.18 35.6727V31.9462L86.2669 32.1515C85.7185 32.2743 85.0662 32.3351 84.3289 32.3351C80.6079 32.3351 80.4453 31.3682 80.4453 28.0172V14.0451H87.8561V10.3849H80.4459V1.04602H80.4453Z" fill="#013C7F"/>
<path fill-rule="evenodd" clip-rule="evenodd" d="M103.454 1.04602L102.122 2.01462L95.5635 6.77781V10.3866H90.707V14.0467H95.5635V28.8312C95.5635 35.6409 100.223 36.1972 105.857 36.1972C107.248 36.1972 108.685 35.9997 110.153 35.7799L110.859 35.6727V31.9462L109.855 32.1521C109.255 32.2748 108.537 32.3351 107.727 32.3351C103.634 32.3351 103.454 31.3682 103.454 28.0177V14.0462H111.608V10.386H103.454V1.04602Z" fill="#013C7F"/>
<path fill-rule="evenodd" clip-rule="evenodd" d="M50.3461 18.0096C50.6183 16.3756 51.7486 13.8116 55.1019 13.8116C58.3427 13.8116 59.3121 15.9417 59.4905 18.0096H50.3455H50.3461ZM55.3358 10.5463C46.6557 10.5463 42.2539 14.5893 42.2539 22.5563C42.2539 31.0986 47.9127 36.1971 57.386 36.1971C61.4743 36.1971 64.6306 35.2148 65.8152 34.8458L66.3674 34.6739L66.4278 34.073V30.7859L65.3848 31.1499C64.2788 31.5352 62.3175 31.9522 60.135 31.9522C53.2164 31.9522 50.5689 26.5284 50.3164 21.568H66.9547V20.7788C66.9547 13.9906 63.0464 10.5468 55.3358 10.5468V10.5463Z" fill="#013C7F"/>
<path fill-rule="evenodd" clip-rule="evenodd" d="M114.457 12.3976V14.8746L115.25 14.8952C118.547 14.9878 119.124 15.5365 119.124 18.5672V36.1971H126.807V10.5463L125.87 10.6857L114.458 12.3976H114.457Z" fill="#013C7F"/>
<path fill-rule="evenodd" clip-rule="evenodd" d="M120.798 2.85227H121.464C121.818 2.85227 122.305 2.88512 122.305 3.33819C122.305 3.82853 122.058 3.91532 121.631 3.91532H120.798V2.85178V2.85227ZM120.798 4.66161H121.246L122.265 6.51508H123.382L122.255 4.58855C122.838 4.5454 123.316 4.24924 123.316 3.43773C123.316 2.42911 122.644 2.10205 121.503 2.10205H119.852V6.51508H120.798V4.66161Z" fill="#013C7F"/>
<path fill-rule="evenodd" clip-rule="evenodd" d="M121.584 0.959527C123.463 0.959527 124.996 2.48843 124.996 4.36896C124.996 6.25429 123.463 7.78586 121.584 7.78586C120.678 7.78487 119.81 7.42449 119.169 6.78385C118.529 6.14321 118.169 5.27468 118.169 4.36896C118.169 2.48843 119.701 0.959527 121.584 0.959527ZM121.584 8.64624C123.94 8.64624 125.859 6.73044 125.859 4.36896C125.859 2.01388 123.94 0.0959473 121.584 0.0959473C119.226 0.0959473 117.309 2.01388 117.309 4.36896C117.309 6.73044 119.226 8.64624 121.584 8.64624Z" fill="#013C7F"/>
</svg>
