<svg width="166" height="54" viewBox="0 0 166 54" fill="none" xmlns="http://www.w3.org/2000/svg">
<path d="M4.65661 1.54545V19H0.966264V1.54545H4.65661ZM11.2553 11.4318V19H7.62464V5.90909H11.0849V8.21875H11.2383C11.5281 7.45739 12.0138 6.85511 12.6957 6.41193C13.3775 5.96307 14.2042 5.73864 15.1758 5.73864C16.0849 5.73864 16.8775 5.9375 17.5536 6.33523C18.2298 6.73295 18.7553 7.30114 19.1303 8.03977C19.5053 8.77273 19.6928 9.64773 19.6928 10.6648V19H16.0621V11.3125C16.0678 10.5114 15.8633 9.88636 15.4485 9.4375C15.0337 8.98295 14.4627 8.75568 13.7354 8.75568C13.2468 8.75568 12.815 8.8608 12.44 9.07102C12.0707 9.28125 11.7809 9.58807 11.5707 9.99148C11.3661 10.3892 11.261 10.8693 11.2553 11.4318ZM33.4464 9.64205L30.1225 9.84659C30.0657 9.5625 29.9435 9.30682 29.756 9.07955C29.5685 8.84659 29.3214 8.66193 29.0146 8.52557C28.7134 8.38352 28.3526 8.3125 27.9322 8.3125C27.3697 8.3125 26.8952 8.43182 26.5089 8.67045C26.1225 8.90341 25.9293 9.21591 25.9293 9.60795C25.9293 9.92045 26.0543 10.1847 26.3043 10.4006C26.5543 10.6165 26.9833 10.7898 27.5913 10.9205L29.9606 11.3977C31.2333 11.6591 32.1822 12.0795 32.8072 12.6591C33.4322 13.2386 33.7447 14 33.7447 14.9432C33.7447 15.8011 33.4918 16.554 32.9862 17.2017C32.4862 17.8494 31.7987 18.3551 30.9237 18.7188C30.0543 19.0767 29.0515 19.2557 27.9151 19.2557C26.1822 19.2557 24.8015 18.8949 23.7731 18.1733C22.7504 17.446 22.1509 16.4574 21.9748 15.2074L25.5458 15.0199C25.6538 15.5483 25.9151 15.9517 26.3299 16.2301C26.7447 16.5028 27.2759 16.6392 27.9237 16.6392C28.56 16.6392 29.0714 16.517 29.4577 16.2727C29.8498 16.0227 30.0487 15.7017 30.0543 15.3097C30.0487 14.9801 29.9094 14.7102 29.6367 14.5C29.364 14.2841 28.9435 14.1193 28.3754 14.0057L26.1083 13.554C24.8299 13.2983 23.8782 12.8551 23.2532 12.2244C22.6339 11.5937 22.3242 10.7898 22.3242 9.8125C22.3242 8.97159 22.5515 8.24716 23.006 7.6392C23.4663 7.03125 24.1112 6.5625 24.9407 6.23295C25.7759 5.90341 26.7532 5.73864 27.8725 5.73864C29.5259 5.73864 30.8271 6.08807 31.7759 6.78693C32.7305 7.4858 33.2873 8.4375 33.4464 9.64205ZM42.994 5.90909V8.63636H35.1104V5.90909H42.994ZM36.9002 2.77273H40.5309V14.9773C40.5309 15.3125 40.582 15.5739 40.6843 15.7614C40.7866 15.9432 40.9286 16.071 41.1104 16.1449C41.2979 16.2187 41.5138 16.2557 41.7582 16.2557C41.9286 16.2557 42.0991 16.2415 42.2695 16.2131C42.44 16.179 42.5707 16.1534 42.6616 16.1364L43.2326 18.8381C43.0508 18.8949 42.7951 18.9602 42.4656 19.0341C42.136 19.1136 41.7354 19.1619 41.2638 19.179C40.3888 19.2131 39.6218 19.0966 38.9627 18.8295C38.3093 18.5625 37.8008 18.1477 37.4371 17.5852C37.0735 17.0227 36.8945 16.3125 36.9002 15.4545V2.77273ZM49.092 19.2472C48.2567 19.2472 47.5124 19.1023 46.859 18.8125C46.2056 18.517 45.6886 18.0824 45.3079 17.5085C44.9329 16.929 44.7454 16.2074 44.7454 15.3438C44.7454 14.6165 44.8789 14.0057 45.146 13.5114C45.413 13.017 45.7766 12.6193 46.2369 12.3182C46.6971 12.017 47.2198 11.7898 47.805 11.6364C48.396 11.483 49.0153 11.375 49.663 11.3125C50.4244 11.233 51.038 11.1591 51.5039 11.0909C51.9698 11.017 52.3079 10.9091 52.5181 10.767C52.7283 10.625 52.8335 10.4148 52.8335 10.1364V10.0852C52.8335 9.54545 52.663 9.12784 52.3221 8.83239C51.9869 8.53693 51.5096 8.3892 50.8903 8.3892C50.2369 8.3892 49.717 8.53409 49.3306 8.82386C48.9442 9.10795 48.6886 9.46591 48.5636 9.89773L45.2056 9.625C45.3761 8.82955 45.7113 8.14205 46.2113 7.5625C46.7113 6.97727 47.3562 6.52841 48.146 6.21591C48.9414 5.89773 49.8619 5.73864 50.9073 5.73864C51.6346 5.73864 52.3306 5.82386 52.9954 5.99432C53.6658 6.16477 54.2596 6.42898 54.7766 6.78693C55.2994 7.14489 55.7113 7.60511 56.0124 8.16761C56.3136 8.72443 56.4641 9.39205 56.4641 10.1705V19H53.021V17.1847H52.9187C52.7085 17.5938 52.4272 17.9545 52.0749 18.267C51.7227 18.5739 51.2994 18.8153 50.805 18.9915C50.3107 19.1619 49.7397 19.2472 49.092 19.2472ZM50.1317 16.7415C50.6658 16.7415 51.1374 16.6364 51.5465 16.4261C51.9556 16.2102 52.2766 15.9205 52.5096 15.5568C52.7425 15.1932 52.859 14.7812 52.859 14.321V12.9318C52.7454 13.0057 52.5891 13.0739 52.3903 13.1364C52.1971 13.1932 51.9783 13.2472 51.734 13.2983C51.4897 13.3437 51.2454 13.3864 51.0011 13.4261C50.7567 13.4602 50.5352 13.4915 50.3363 13.5199C49.9102 13.5824 49.538 13.6818 49.2198 13.8182C48.9016 13.9545 48.6545 14.1392 48.4783 14.3722C48.3022 14.5994 48.2141 14.8835 48.2141 15.2244C48.2141 15.7188 48.3931 16.0966 48.7511 16.358C49.1147 16.6136 49.5749 16.7415 50.1317 16.7415ZM62.9116 1.54545V19H59.2809V1.54545H62.9116ZM69.4506 1.54545V19H65.82V1.54545H69.4506ZM76.092 19.2472C75.2567 19.2472 74.5124 19.1023 73.859 18.8125C73.2056 18.517 72.6886 18.0824 72.3079 17.5085C71.9329 16.929 71.7454 16.2074 71.7454 15.3438C71.7454 14.6165 71.8789 14.0057 72.146 13.5114C72.413 13.017 72.7766 12.6193 73.2369 12.3182C73.6971 12.017 74.2198 11.7898 74.805 11.6364C75.396 11.483 76.0153 11.375 76.663 11.3125C77.4244 11.233 78.038 11.1591 78.5039 11.0909C78.9698 11.017 79.3079 10.9091 79.5181 10.767C79.7283 10.625 79.8335 10.4148 79.8335 10.1364V10.0852C79.8335 9.54545 79.663 9.12784 79.3221 8.83239C78.9869 8.53693 78.5096 8.3892 77.8903 8.3892C77.2369 8.3892 76.717 8.53409 76.3306 8.82386C75.9442 9.10795 75.6886 9.46591 75.5636 9.89773L72.2056 9.625C72.3761 8.82955 72.7113 8.14205 73.2113 7.5625C73.7113 6.97727 74.3562 6.52841 75.146 6.21591C75.9414 5.89773 76.8619 5.73864 77.9073 5.73864C78.6346 5.73864 79.3306 5.82386 79.9954 5.99432C80.6658 6.16477 81.2596 6.42898 81.7766 6.78693C82.2994 7.14489 82.7113 7.60511 83.0124 8.16761C83.3136 8.72443 83.4641 9.39205 83.4641 10.1705V19H80.021V17.1847H79.9187C79.7085 17.5938 79.4272 17.9545 79.0749 18.267C78.7227 18.5739 78.2994 18.8153 77.805 18.9915C77.3107 19.1619 76.7397 19.2472 76.092 19.2472ZM77.1317 16.7415C77.6658 16.7415 78.1374 16.6364 78.5465 16.4261C78.9556 16.2102 79.2766 15.9205 79.5096 15.5568C79.7425 15.1932 79.859 14.7812 79.859 14.321V12.9318C79.7454 13.0057 79.5891 13.0739 79.3903 13.1364C79.1971 13.1932 78.9783 13.2472 78.734 13.2983C78.4897 13.3437 78.2454 13.3864 78.0011 13.4261C77.7567 13.4602 77.5352 13.4915 77.3363 13.5199C76.9102 13.5824 76.538 13.6818 76.2198 13.8182C75.9016 13.9545 75.6545 14.1392 75.4783 14.3722C75.3022 14.5994 75.2141 14.8835 75.2141 15.2244C75.2141 15.7188 75.3931 16.0966 75.7511 16.358C76.1147 16.6136 76.5749 16.7415 77.1317 16.7415ZM93.244 5.90909V8.63636H85.3604V5.90909H93.244ZM87.1502 2.77273H90.7809V14.9773C90.7809 15.3125 90.832 15.5739 90.9343 15.7614C91.0366 15.9432 91.1786 16.071 91.3604 16.1449C91.5479 16.2187 91.7638 16.2557 92.0082 16.2557C92.1786 16.2557 92.3491 16.2415 92.5195 16.2131C92.69 16.179 92.8207 16.1534 92.9116 16.1364L93.4826 18.8381C93.3008 18.8949 93.0451 18.9602 92.7156 19.0341C92.386 19.1136 91.9854 19.1619 91.5138 19.179C90.6388 19.2131 89.8718 19.0966 89.2127 18.8295C88.5593 18.5625 88.0508 18.1477 87.6871 17.5852C87.3235 17.0227 87.1445 16.3125 87.1502 15.4545V2.77273ZM95.609 19V5.90909H99.2397V19H95.609ZM97.4329 4.22159C96.8931 4.22159 96.43 4.04261 96.0437 3.68466C95.663 3.32102 95.4727 2.88636 95.4727 2.38068C95.4727 1.88068 95.663 1.4517 96.0437 1.09375C96.43 0.730113 96.8931 0.548295 97.4329 0.548295C97.9727 0.548295 98.4329 0.730113 98.8136 1.09375C99.1999 1.4517 99.3931 1.88068 99.3931 2.38068C99.3931 2.88636 99.1999 3.32102 98.8136 3.68466C98.4329 4.04261 97.9727 4.22159 97.4329 4.22159ZM108.063 19.2557C106.739 19.2557 105.594 18.9744 104.628 18.4119C103.668 17.8437 102.926 17.054 102.404 16.0426C101.881 15.0256 101.62 13.8466 101.62 12.5057C101.62 11.1534 101.881 9.97159 102.404 8.96023C102.926 7.94318 103.668 7.15341 104.628 6.59091C105.594 6.02273 106.739 5.73864 108.063 5.73864C109.387 5.73864 110.529 6.02273 111.489 6.59091C112.455 7.15341 113.199 7.94318 113.722 8.96023C114.245 9.97159 114.506 11.1534 114.506 12.5057C114.506 13.8466 114.245 15.0256 113.722 16.0426C113.199 17.054 112.455 17.8437 111.489 18.4119C110.529 18.9744 109.387 19.2557 108.063 19.2557ZM108.08 16.4432C108.682 16.4432 109.185 16.2727 109.588 15.9318C109.992 15.5852 110.296 15.1136 110.5 14.517C110.711 13.9205 110.816 13.2415 110.816 12.4801C110.816 11.7188 110.711 11.0398 110.5 10.4432C110.296 9.84659 109.992 9.375 109.588 9.02841C109.185 8.68182 108.682 8.50852 108.08 8.50852C107.472 8.50852 106.961 8.68182 106.546 9.02841C106.137 9.375 105.827 9.84659 105.617 10.4432C105.412 11.0398 105.31 11.7188 105.31 12.4801C105.31 13.2415 105.412 13.9205 105.617 14.517C105.827 15.1136 106.137 15.5852 106.546 15.9318C106.961 16.2727 107.472 16.4432 108.08 16.4432ZM120.498 11.4318V19H116.867V5.90909H120.327V8.21875H120.48C120.77 7.45739 121.256 6.85511 121.938 6.41193C122.62 5.96307 123.446 5.73864 124.418 5.73864C125.327 5.73864 126.12 5.9375 126.796 6.33523C127.472 6.73295 127.998 7.30114 128.373 8.03977C128.748 8.77273 128.935 9.64773 128.935 10.6648V19H125.304V11.3125C125.31 10.5114 125.105 9.88636 124.691 9.4375C124.276 8.98295 123.705 8.75568 122.978 8.75568C122.489 8.75568 122.057 8.8608 121.682 9.07102C121.313 9.28125 121.023 9.58807 120.813 9.99148C120.608 10.3892 120.503 10.8693 120.498 11.4318ZM142.689 9.64205L139.365 9.84659C139.308 9.5625 139.186 9.30682 138.998 9.07955C138.811 8.84659 138.564 8.66193 138.257 8.52557C137.956 8.38352 137.595 8.3125 137.174 8.3125C136.612 8.3125 136.137 8.43182 135.751 8.67045C135.365 8.90341 135.172 9.21591 135.172 9.60795C135.172 9.92045 135.297 10.1847 135.547 10.4006C135.797 10.6165 136.225 10.7898 136.833 10.9205L139.203 11.3977C140.475 11.6591 141.424 12.0795 142.049 12.6591C142.674 13.2386 142.987 14 142.987 14.9432C142.987 15.8011 142.734 16.554 142.228 17.2017C141.728 17.8494 141.041 18.3551 140.166 18.7188C139.297 19.0767 138.294 19.2557 137.157 19.2557C135.424 19.2557 134.044 18.8949 133.015 18.1733C131.993 17.446 131.393 16.4574 131.217 15.2074L134.788 15.0199C134.896 15.5483 135.157 15.9517 135.572 16.2301C135.987 16.5028 136.518 16.6392 137.166 16.6392C137.802 16.6392 138.314 16.517 138.7 16.2727C139.092 16.0227 139.291 15.7017 139.297 15.3097C139.291 14.9801 139.152 14.7102 138.879 14.5C138.606 14.2841 138.186 14.1193 137.618 14.0057L135.35 13.554C134.072 13.2983 133.12 12.8551 132.495 12.2244C131.876 11.5937 131.566 10.7898 131.566 9.8125C131.566 8.97159 131.794 8.24716 132.248 7.6392C132.708 7.03125 133.353 6.5625 134.183 6.23295C135.018 5.90341 135.995 5.73864 137.115 5.73864C138.768 5.73864 140.069 6.08807 141.018 6.78693C141.973 7.4858 142.529 8.4375 142.689 9.64205ZM156.18 19.2557C154.975 19.2557 153.936 19.0398 153.061 18.608C152.186 18.1761 151.512 17.5909 151.041 16.8523C150.575 16.108 150.342 15.2784 150.342 14.3636C150.342 13.6818 150.478 13.0767 150.751 12.5483C151.024 12.0199 151.404 11.5341 151.893 11.0909C152.382 10.642 152.95 10.196 153.598 9.75284L156.981 7.52841C157.419 7.25 157.74 6.95739 157.944 6.65057C158.149 6.33807 158.251 6 158.251 5.63636C158.251 5.28977 158.112 4.96875 157.833 4.67329C157.555 4.37784 157.16 4.23295 156.649 4.23864C156.308 4.23864 156.012 4.31534 155.762 4.46875C155.512 4.61648 155.316 4.8125 155.174 5.05682C155.038 5.29545 154.97 5.5625 154.97 5.85795C154.97 6.22159 155.072 6.59091 155.277 6.96591C155.481 7.34091 155.754 7.73864 156.095 8.15909C156.436 8.57386 156.808 9.02273 157.211 9.50568L165.487 19H161.703L154.799 11.3125C154.345 10.7955 153.89 10.2557 153.436 9.69318C152.987 9.125 152.612 8.52273 152.311 7.88636C152.01 7.24432 151.859 6.54829 151.859 5.79829C151.859 4.9517 152.055 4.19034 152.447 3.5142C152.845 2.83807 153.402 2.30398 154.118 1.91193C154.833 1.5142 155.669 1.31534 156.623 1.31534C157.555 1.31534 158.359 1.50568 159.035 1.88636C159.717 2.26136 160.24 2.76136 160.603 3.38636C160.973 4.00568 161.157 4.6875 161.157 5.43182C161.157 6.25568 160.953 7.00284 160.544 7.6733C160.14 8.33807 159.572 8.93466 158.839 9.46307L155.277 12.0284C154.794 12.3807 154.436 12.7415 154.203 13.1108C153.975 13.4744 153.862 13.8239 153.862 14.1591C153.862 14.5739 153.964 14.946 154.169 15.2756C154.373 15.6051 154.663 15.8665 155.038 16.0597C155.413 16.2472 155.853 16.3409 156.359 16.3409C156.973 16.3409 157.578 16.2017 158.174 15.9233C158.777 15.6392 159.322 15.2386 159.811 14.7216C160.305 14.1989 160.7 13.5795 160.995 12.8636C161.291 12.1477 161.439 11.3551 161.439 10.4858H164.447C164.447 11.554 164.331 12.517 164.098 13.375C163.865 14.2273 163.541 14.9716 163.126 15.608C162.711 16.2386 162.237 16.7557 161.703 17.1591C161.532 17.267 161.368 17.3693 161.208 17.4659C161.049 17.5625 160.885 17.6648 160.714 17.7727C160.066 18.2955 159.342 18.6733 158.541 18.9062C157.745 19.1392 156.958 19.2557 156.18 19.2557ZM3.38033 35.5455H7.93146L12.7383 47.2727H12.9428L17.7496 35.5455H22.3008V53H18.7212V41.6392H18.5764L14.0593 52.9148H11.6218L7.10476 41.5966H6.95987V53H3.38033V35.5455ZM31.1879 53.2557C29.864 53.2557 28.7191 52.9744 27.7532 52.4119C26.793 51.8437 26.0515 51.054 25.5288 50.0426C25.006 49.0256 24.7447 47.8466 24.7447 46.5057C24.7447 45.1534 25.006 43.9716 25.5288 42.9602C26.0515 41.9432 26.793 41.1534 27.7532 40.5909C28.7191 40.0227 29.864 39.7386 31.1879 39.7386C32.5117 39.7386 33.6538 40.0227 34.614 40.5909C35.5799 41.1534 36.3242 41.9432 36.8469 42.9602C37.3697 43.9716 37.631 45.1534 37.631 46.5057C37.631 47.8466 37.3697 49.0256 36.8469 50.0426C36.3242 51.054 35.5799 51.8437 34.614 52.4119C33.6538 52.9744 32.5117 53.2557 31.1879 53.2557ZM31.2049 50.4432C31.8072 50.4432 32.31 50.2727 32.7134 49.9318C33.1168 49.5852 33.4208 49.1136 33.6254 48.517C33.8356 47.9205 33.9407 47.2415 33.9407 46.4801C33.9407 45.7188 33.8356 45.0398 33.6254 44.4432C33.4208 43.8466 33.1168 43.375 32.7134 43.0284C32.31 42.6818 31.8072 42.5085 31.2049 42.5085C30.5969 42.5085 30.0856 42.6818 29.6708 43.0284C29.2617 43.375 28.9521 43.8466 28.7418 44.4432C28.5373 45.0398 28.435 45.7188 28.435 46.4801C28.435 47.2415 28.5373 47.9205 28.7418 48.517C28.9521 49.1136 29.2617 49.5852 29.6708 49.9318C30.0856 50.2727 30.5969 50.4432 31.2049 50.4432ZM44.8157 53.2131C43.8214 53.2131 42.9208 52.9574 42.114 52.446C41.3129 51.929 40.6765 51.1705 40.2049 50.1705C39.739 49.1648 39.506 47.9318 39.506 46.4716C39.506 44.9716 39.7475 43.7244 40.2305 42.7301C40.7134 41.7301 41.3555 40.983 42.1566 40.4886C42.9634 39.9886 43.8469 39.7386 44.8072 39.7386C45.5401 39.7386 46.1509 39.8636 46.6396 40.1136C47.1339 40.358 47.5316 40.6648 47.8327 41.0341C48.1396 41.3977 48.3725 41.7557 48.5316 42.108H48.6424V35.5455H52.2646V53H48.685V50.9034H48.5316C48.3612 51.267 48.1197 51.6278 47.8072 51.9858C47.5004 52.3381 47.0998 52.6307 46.6055 52.8636C46.1168 53.0966 45.5202 53.2131 44.8157 53.2131ZM45.9663 50.3239C46.5515 50.3239 47.0458 50.1648 47.4492 49.8466C47.8583 49.5227 48.1708 49.071 48.3867 48.4915C48.6083 47.9119 48.7191 47.233 48.7191 46.4545C48.7191 45.6761 48.6112 45 48.3952 44.4261C48.1793 43.8523 47.8668 43.4091 47.4577 43.0966C47.0487 42.7841 46.5515 42.6278 45.9663 42.6278C45.3697 42.6278 44.8668 42.7898 44.4577 43.1136C44.0487 43.4375 43.739 43.8864 43.5288 44.4602C43.3185 45.0341 43.2134 45.6989 43.2134 46.4545C43.2134 47.2159 43.3185 47.8892 43.5288 48.4744C43.7447 49.054 44.0543 49.5085 44.4577 49.8381C44.8668 50.1619 45.3697 50.3239 45.9663 50.3239ZM55.2496 53V39.9091H58.8803V53H55.2496ZM57.0735 38.2216C56.5337 38.2216 56.0707 38.0426 55.6843 37.6847C55.3036 37.321 55.1133 36.8864 55.1133 36.3807C55.1133 35.8807 55.3036 35.4517 55.6843 35.0938C56.0707 34.7301 56.5337 34.5483 57.0735 34.5483C57.6133 34.5483 58.0735 34.7301 58.4542 35.0938C58.8406 35.4517 59.0337 35.8807 59.0337 36.3807C59.0337 36.8864 58.8406 37.321 58.4542 37.6847C58.0735 38.0426 57.6133 38.2216 57.0735 38.2216ZM68.8285 39.9091V42.6364H60.7489V39.9091H68.8285ZM62.5984 53V38.9631C62.5984 38.0142 62.783 37.2273 63.1523 36.6023C63.5273 35.9773 64.0387 35.5085 64.6864 35.196C65.3342 34.8835 66.07 34.7273 66.8938 34.7273C67.4506 34.7273 67.9592 34.7699 68.4194 34.8551C68.8853 34.9403 69.2319 35.017 69.4592 35.0852L68.8114 37.8125C68.6694 37.767 68.4933 37.7244 68.283 37.6847C68.0785 37.6449 67.8683 37.625 67.6523 37.625C67.1183 37.625 66.7461 37.75 66.5359 38C66.3256 38.2443 66.2205 38.5881 66.2205 39.0312V53H62.5984ZM71.0465 53V39.9091H74.6772V53H71.0465ZM72.8704 38.2216C72.3306 38.2216 71.8675 38.0426 71.4812 37.6847C71.1005 37.321 70.9102 36.8864 70.9102 36.3807C70.9102 35.8807 71.1005 35.4517 71.4812 35.0938C71.8675 34.7301 72.3306 34.5483 72.8704 34.5483C73.4102 34.5483 73.8704 34.7301 74.2511 35.0938C74.6374 35.4517 74.8306 35.8807 74.8306 36.3807C74.8306 36.8864 74.6374 37.321 74.2511 37.6847C73.8704 38.0426 73.4102 38.2216 72.8704 38.2216ZM83.5004 53.2557C82.1594 53.2557 81.006 52.9716 80.0401 52.4034C79.0799 51.8295 78.3413 51.0341 77.8242 50.017C77.3129 49 77.0572 47.8295 77.0572 46.5057C77.0572 45.1648 77.3157 43.9886 77.8327 42.9773C78.3555 41.9602 79.0969 41.1676 80.0572 40.5994C81.0174 40.0256 82.1594 39.7386 83.4833 39.7386C84.6254 39.7386 85.6254 39.946 86.4833 40.3608C87.3413 40.7756 88.0202 41.358 88.5202 42.108C89.0202 42.858 89.2958 43.7386 89.3469 44.75H85.9208C85.8242 44.0966 85.5685 43.571 85.1538 43.1733C84.7447 42.7699 84.2077 42.5682 83.543 42.5682C82.9805 42.5682 82.489 42.7216 82.0685 43.0284C81.6538 43.3295 81.3299 43.7699 81.0969 44.3494C80.864 44.929 80.7475 45.6307 80.7475 46.4545C80.7475 47.2898 80.8612 48 81.0884 48.5852C81.3214 49.1705 81.6481 49.6165 82.0685 49.9233C82.489 50.2301 82.9805 50.3835 83.543 50.3835C83.9577 50.3835 84.3299 50.2983 84.6594 50.1278C84.9947 49.9574 85.2702 49.7102 85.4862 49.3864C85.7077 49.0568 85.8526 48.6619 85.9208 48.2017H89.3469C89.2901 49.2017 89.0174 50.0824 88.5288 50.8438C88.0458 51.5994 87.3782 52.1903 86.5259 52.6165C85.6737 53.0426 84.6651 53.2557 83.5004 53.2557ZM95.4045 53.2472C94.5692 53.2472 93.8249 53.1023 93.1715 52.8125C92.5181 52.517 92.0011 52.0824 91.6204 51.5085C91.2454 50.929 91.0579 50.2074 91.0579 49.3438C91.0579 48.6165 91.1914 48.0057 91.4585 47.5114C91.7255 47.017 92.0891 46.6193 92.5494 46.3182C93.0096 46.017 93.5323 45.7898 94.1175 45.6364C94.7085 45.483 95.3278 45.375 95.9755 45.3125C96.7369 45.233 97.3505 45.1591 97.8164 45.0909C98.2823 45.017 98.6204 44.9091 98.8306 44.767C99.0408 44.625 99.146 44.4148 99.146 44.1364V44.0852C99.146 43.5455 98.9755 43.1278 98.6346 42.8324C98.2994 42.5369 97.8221 42.3892 97.2028 42.3892C96.5494 42.3892 96.0295 42.5341 95.6431 42.8239C95.2567 43.108 95.0011 43.4659 94.8761 43.8977L91.5181 43.625C91.6886 42.8295 92.0238 42.142 92.5238 41.5625C93.0238 40.9773 93.6687 40.5284 94.4585 40.2159C95.2539 39.8977 96.1744 39.7386 97.2198 39.7386C97.9471 39.7386 98.6431 39.8239 99.3079 39.9943C99.9783 40.1648 100.572 40.429 101.089 40.7869C101.612 41.1449 102.024 41.6051 102.325 42.1676C102.626 42.7244 102.777 43.392 102.777 44.1705V53H99.3335V51.1847H99.2312C99.021 51.5938 98.7397 51.9545 98.3874 52.267C98.0352 52.5739 97.6119 52.8153 97.1175 52.9915C96.6232 53.1619 96.0522 53.2472 95.4045 53.2472ZM96.4442 50.7415C96.9783 50.7415 97.4499 50.6364 97.859 50.4261C98.2681 50.2102 98.5891 49.9205 98.8221 49.5568C99.055 49.1932 99.1715 48.7812 99.1715 48.321V46.9318C99.0579 47.0057 98.9016 47.0739 98.7028 47.1364C98.5096 47.1932 98.2908 47.2472 98.0465 47.2983C97.8022 47.3437 97.5579 47.3864 97.3136 47.4261C97.0692 47.4602 96.8477 47.4915 96.6488 47.5199C96.2227 47.5824 95.8505 47.6818 95.5323 47.8182C95.2141 47.9545 94.967 48.1392 94.7908 48.3722C94.6147 48.5994 94.5266 48.8835 94.5266 49.2244C94.5266 49.7188 94.7056 50.0966 95.0636 50.358C95.4272 50.6136 95.8874 50.7415 96.4442 50.7415ZM112.556 39.9091V42.6364H104.673V39.9091H112.556ZM106.463 36.7727H110.093V48.9773C110.093 49.3125 110.145 49.5739 110.247 49.7614C110.349 49.9432 110.491 50.071 110.673 50.1449C110.86 50.2187 111.076 50.2557 111.321 50.2557C111.491 50.2557 111.662 50.2415 111.832 50.2131C112.002 50.179 112.133 50.1534 112.224 50.1364L112.795 52.8381C112.613 52.8949 112.358 52.9602 112.028 53.0341C111.699 53.1136 111.298 53.1619 110.826 53.179C109.951 53.2131 109.184 53.0966 108.525 52.8295C107.872 52.5625 107.363 52.1477 107 51.5852C106.636 51.0227 106.457 50.3125 106.463 49.4545V36.7727ZM114.922 53V39.9091H118.552V53H114.922ZM116.745 38.2216C116.206 38.2216 115.743 38.0426 115.356 37.6847C114.975 37.321 114.785 36.8864 114.785 36.3807C114.785 35.8807 114.975 35.4517 115.356 35.0938C115.743 34.7301 116.206 34.5483 116.745 34.5483C117.285 34.5483 117.745 34.7301 118.126 35.0938C118.512 35.4517 118.706 35.8807 118.706 36.3807C118.706 36.8864 118.512 37.321 118.126 37.6847C117.745 38.0426 117.285 38.2216 116.745 38.2216ZM127.375 53.2557C126.051 53.2557 124.907 52.9744 123.941 52.4119C122.98 51.8437 122.239 51.054 121.716 50.0426C121.194 49.0256 120.932 47.8466 120.932 46.5057C120.932 45.1534 121.194 43.9716 121.716 42.9602C122.239 41.9432 122.98 41.1534 123.941 40.5909C124.907 40.0227 126.051 39.7386 127.375 39.7386C128.699 39.7386 129.841 40.0227 130.801 40.5909C131.767 41.1534 132.512 41.9432 133.034 42.9602C133.557 43.9716 133.819 45.1534 133.819 46.5057C133.819 47.8466 133.557 49.0256 133.034 50.0426C132.512 51.054 131.767 51.8437 130.801 52.4119C129.841 52.9744 128.699 53.2557 127.375 53.2557ZM127.392 50.4432C127.995 50.4432 128.498 50.2727 128.901 49.9318C129.304 49.5852 129.608 49.1136 129.813 48.517C130.023 47.9205 130.128 47.2415 130.128 46.4801C130.128 45.7188 130.023 45.0398 129.813 44.4432C129.608 43.8466 129.304 43.375 128.901 43.0284C128.498 42.6818 127.995 42.5085 127.392 42.5085C126.784 42.5085 126.273 42.6818 125.858 43.0284C125.449 43.375 125.14 43.8466 124.929 44.4432C124.725 45.0398 124.623 45.7188 124.623 46.4801C124.623 47.2415 124.725 47.9205 124.929 48.517C125.14 49.1136 125.449 49.5852 125.858 49.9318C126.273 50.2727 126.784 50.4432 127.392 50.4432ZM139.81 45.4318V53H136.179V39.9091H139.64V42.2188H139.793C140.083 41.4574 140.569 40.8551 141.25 40.4119C141.932 39.9631 142.759 39.7386 143.73 39.7386C144.64 39.7386 145.432 39.9375 146.108 40.3352C146.784 40.733 147.31 41.3011 147.685 42.0398C148.06 42.7727 148.248 43.6477 148.248 44.6648V53H144.617V45.3125C144.623 44.5114 144.418 43.8864 144.003 43.4375C143.588 42.983 143.017 42.7557 142.29 42.7557C141.801 42.7557 141.37 42.8608 140.995 43.071C140.625 43.2812 140.336 43.5881 140.125 43.9915C139.921 44.3892 139.816 44.8693 139.81 45.4318ZM162.001 43.642L158.677 43.8466C158.62 43.5625 158.498 43.3068 158.311 43.0795C158.123 42.8466 157.876 42.6619 157.569 42.5256C157.268 42.3835 156.907 42.3125 156.487 42.3125C155.924 42.3125 155.45 42.4318 155.064 42.6705C154.677 42.9034 154.484 43.2159 154.484 43.608C154.484 43.9205 154.609 44.1847 154.859 44.4006C155.109 44.6165 155.538 44.7898 156.146 44.9205L158.515 45.3977C159.788 45.6591 160.737 46.0795 161.362 46.6591C161.987 47.2386 162.299 48 162.299 48.9432C162.299 49.8011 162.047 50.554 161.541 51.2017C161.041 51.8494 160.353 52.3551 159.478 52.7188C158.609 53.0767 157.606 53.2557 156.47 53.2557C154.737 53.2557 153.356 52.8949 152.328 52.1733C151.305 51.446 150.706 50.4574 150.529 49.2074L154.1 49.0199C154.208 49.5483 154.47 49.9517 154.885 50.2301C155.299 50.5028 155.831 50.6392 156.478 50.6392C157.115 50.6392 157.626 50.517 158.012 50.2727C158.404 50.0227 158.603 49.7017 158.609 49.3097C158.603 48.9801 158.464 48.7102 158.191 48.5C157.919 48.2841 157.498 48.1193 156.93 48.0057L154.663 47.554C153.385 47.2983 152.433 46.8551 151.808 46.2244C151.189 45.5937 150.879 44.7898 150.879 43.8125C150.879 42.9716 151.106 42.2472 151.561 41.6392C152.021 41.0312 152.666 40.5625 153.495 40.233C154.331 39.9034 155.308 39.7386 156.427 39.7386C158.081 39.7386 159.382 40.0881 160.331 40.7869C161.285 41.4858 161.842 42.4375 162.001 43.642Z" fill="white"/>
</svg>
