<svg width="166" height="66" viewBox="0 0 166 66" fill="none" xmlns="http://www.w3.org/2000/svg">
<path d="M30.6743 33.5357C31.9832 34.7094 33.0175 36.1568 33.7035 37.7752C34.3895 39.3936 34.7104 41.1432 34.6435 42.8997V64.7304H24.768V45.7882C24.768 41.5586 21.9896 38.8129 17.933 38.8129C15.2458 38.8398 12.5618 39.004 9.89134 39.3049V64.6987H0V31.5598C6.71602 30.562 13.4933 30.0317 20.2828 29.9727C24.6251 29.9727 28.0387 31.1709 30.6743 33.5675" fill="white"/>
<path d="M71.9462 34.5197C75.4312 37.8288 77.2174 42.1933 77.2174 47.6133C77.2174 53.0333 75.4312 57.5486 71.9462 60.9292C68.4613 64.3097 63.8331 66 58.0698 66C52.3065 66 47.6783 64.3097 44.1219 60.9292C40.5655 57.5486 38.7793 53.1127 38.7793 47.6133C38.7793 42.114 40.5655 37.8288 44.0504 34.5197C47.5354 31.2105 52.3065 29.5203 58.0698 29.5203C63.8331 29.5203 68.4613 31.2105 71.9462 34.5197ZM58.0698 38.2494C52.4493 38.2494 48.6071 41.9791 48.6071 47.6133C48.6071 53.2476 52.4493 57.263 58.0698 57.263C63.6902 57.263 67.461 53.2952 67.461 47.6133C67.461 41.9315 63.6902 38.2494 58.0698 38.2494Z" fill="white"/>
<path d="M91.0232 64.7304L76.1465 30.9963H86.9666L96.2149 53.1127L105.4 30.9963H116.148L101.343 64.7304H91.0232Z" fill="white"/>
<path d="M129.659 30.9963H119.768V64.7304H129.659V30.9963Z" fill="white"/>
<path d="M136.494 55.0092C141.686 56.9851 146.29 57.985 150.299 57.985C154.308 57.985 156.134 57.1359 156.134 55.3821C156.134 53.795 154.642 53.057 152.363 52.5571C151.218 52.2484 150.054 52.0151 148.878 51.8588L147.029 51.5096C138.987 50.0256 135.28 47.0657 135.28 41.368C135.28 34.3212 141.051 30.0995 150.228 30.0995C155.113 30.0531 159.966 30.8975 164.549 32.5912L162.342 39.9872C156.864 38.4397 152.736 37.6621 149.886 37.6621C146.759 37.6621 144.98 38.7889 144.98 40.5506C144.98 42.1377 146.116 42.6615 148.108 43.2963C149.323 43.574 149.886 43.6455 151.593 44.0026L153.594 44.3517C161.913 46.042 165.406 48.4385 165.406 54.4219C165.406 61.9607 159.429 65.7619 149.958 65.7619C144.671 65.7568 139.432 64.7525 134.518 62.8019L136.494 55.0092Z" fill="white"/>
<path d="M101.835 21.68C100.338 21.6796 98.8442 21.5655 97.3652 21.3387C93.6445 21.1502 90.0104 20.1487 86.7187 18.4047C83.427 16.6608 80.5577 14.2167 78.3128 11.2447C73.2084 9.56236 72.0097 7.03885 71.8906 6.75317C72.1288 7.33247 79.9085 25.9255 100.271 23.4178C107.773 22.4973 113.29 22.6243 117.346 23.2909C112.259 22.1373 107.051 21.5965 101.835 21.68Z" fill="white"/>
<path d="M128.825 28.7902C128.825 28.7902 126.348 20.1166 101.834 20.0611C80.9959 20.0611 75.7168 0 75.7168 0C75.7168 0 77.7967 8.80053 102.708 8.72911C123.554 8.64182 128.825 28.7902 128.825 28.7902Z" fill="#006FDE"/>
</svg>
