<svg width="204" height="24" viewBox="0 0 204 24" fill="none" xmlns="http://www.w3.org/2000/svg">
<path d="M10.271 6.56534C10.2028 5.87784 9.91016 5.34375 9.39311 4.96307C8.87607 4.58239 8.17436 4.39204 7.288 4.39204C6.68572 4.39204 6.1772 4.47727 5.76243 4.64773C5.34766 4.8125 5.02947 5.04261 4.80788 5.33807C4.59197 5.63352 4.48402 5.96875 4.48402 6.34375C4.47266 6.65625 4.538 6.92898 4.68004 7.16193C4.82777 7.39489 5.02947 7.59659 5.28516 7.76705C5.54084 7.93182 5.83629 8.0767 6.17152 8.2017C6.50675 8.32102 6.8647 8.4233 7.24538 8.50852L8.81357 8.88352C9.57493 9.05398 10.2738 9.28125 10.9102 9.56534C11.5465 9.84943 12.0977 10.1989 12.5636 10.6136C13.0295 11.0284 13.3903 11.517 13.646 12.0795C13.9073 12.642 14.0408 13.2869 14.0465 14.0142C14.0408 15.0824 13.7681 16.0085 13.2283 16.7926C12.6942 17.571 11.9215 18.1761 10.9102 18.608C9.90447 19.0341 8.69141 19.2472 7.27095 19.2472C5.86186 19.2472 4.63459 19.0312 3.58913 18.5994C2.54936 18.1676 1.73686 17.5284 1.15163 16.6818C0.572088 15.8295 0.268111 14.7756 0.239702 13.5199H3.81072C3.8505 14.1051 4.01811 14.5937 4.31357 14.9858C4.6147 15.3722 5.01527 15.6648 5.51527 15.8636C6.02095 16.0568 6.59197 16.1534 7.22834 16.1534C7.85334 16.1534 8.39595 16.0625 8.85618 15.8807C9.32209 15.6989 9.68288 15.446 9.93857 15.1222C10.1942 14.7983 10.3221 14.4261 10.3221 14.0057C10.3221 13.6136 10.2056 13.2841 9.97266 13.017C9.74538 12.75 9.41016 12.5227 8.96697 12.3352C8.52947 12.1477 7.99254 11.9773 7.35618 11.8239L5.45561 11.3466C3.98402 10.9886 2.82209 10.429 1.96982 9.66761C1.11754 8.90625 0.694247 7.88068 0.699929 6.59091C0.694247 5.53409 0.975497 4.6108 1.54368 3.82102C2.11754 3.03125 2.90447 2.41477 3.90447 1.97159C4.90447 1.52841 6.04084 1.30682 7.31357 1.30682C8.60902 1.30682 9.7397 1.52841 10.7056 1.97159C11.6772 2.41477 12.4329 3.03125 12.9727 3.82102C13.5124 4.6108 13.7908 5.52557 13.8079 6.56534H10.271ZM22.4265 19.2557C21.0799 19.2557 19.9208 18.983 18.9492 18.4375C17.9833 17.8864 17.239 17.108 16.7163 16.1023C16.1935 15.0909 15.9322 13.8949 15.9322 12.5142C15.9322 11.1676 16.1935 9.9858 16.7163 8.96875C17.239 7.9517 17.9748 7.15909 18.9237 6.59091C19.8782 6.02273 20.9975 5.73864 22.2816 5.73864C23.1452 5.73864 23.9492 5.87784 24.6935 6.15625C25.4435 6.42898 26.0969 6.84091 26.6538 7.39205C27.2163 7.94318 27.6538 8.63636 27.9663 9.47159C28.2788 10.3011 28.435 11.2727 28.435 12.3864V13.3835H17.381V11.1335H25.0174C25.0174 10.6108 24.9038 10.1477 24.6765 9.74432C24.4492 9.34091 24.1339 9.02557 23.7305 8.7983C23.3327 8.56534 22.8697 8.44886 22.3413 8.44886C21.7901 8.44886 21.3015 8.5767 20.8754 8.83239C20.4549 9.08239 20.1254 9.42045 19.8867 9.84659C19.6481 10.267 19.5259 10.7358 19.5202 11.2528V13.392C19.5202 14.0398 19.6396 14.5994 19.8782 15.071C20.1225 15.5426 20.4663 15.9062 20.9094 16.1619C21.3526 16.4176 21.8782 16.5455 22.4862 16.5455C22.8896 16.5455 23.2589 16.4886 23.5941 16.375C23.9293 16.2614 24.2163 16.0909 24.4549 15.8636C24.6935 15.6364 24.8754 15.358 25.0004 15.0284L28.3583 15.25C28.1879 16.0568 27.8384 16.7614 27.31 17.3636C26.7873 17.9602 26.1112 18.4261 25.2816 18.7614C24.4577 19.0909 23.506 19.2557 22.4265 19.2557ZM30.8043 19V5.90909H34.3242V8.19318H34.4606C34.6992 7.38068 35.0998 6.76705 35.6623 6.35227C36.2248 5.93182 36.8725 5.72159 37.6055 5.72159C37.7873 5.72159 37.9833 5.73295 38.1935 5.75568C38.4038 5.77841 38.5884 5.80966 38.7475 5.84943V9.07102C38.5771 9.01989 38.3413 8.97443 38.0401 8.93466C37.739 8.89489 37.4634 8.875 37.2134 8.875C36.6793 8.875 36.2021 8.99148 35.7816 9.22443C35.3668 9.4517 35.0373 9.76989 34.793 10.179C34.5543 10.5881 34.435 11.0597 34.435 11.5938V19H30.8043ZM53.2276 5.90909L48.6509 19H44.56L39.9833 5.90909H43.8185L46.5373 15.2756H46.6737L49.3839 5.90909H53.2276ZM55.0856 19V5.90909H58.7163V19H55.0856ZM56.9094 4.22159C56.3697 4.22159 55.9066 4.04261 55.5202 3.68466C55.1396 3.32102 54.9492 2.88636 54.9492 2.38068C54.9492 1.88068 55.1396 1.4517 55.5202 1.09375C55.9066 0.730113 56.3697 0.548295 56.9094 0.548295C57.4492 0.548295 57.9094 0.730113 58.2901 1.09375C58.6765 1.4517 58.8697 1.88068 58.8697 2.38068C58.8697 2.88636 58.6765 3.32102 58.2901 3.68466C57.9094 4.04261 57.4492 4.22159 56.9094 4.22159ZM67.5394 19.2557C66.1985 19.2557 65.0451 18.9716 64.0792 18.4034C63.119 17.8295 62.3803 17.0341 61.8633 16.017C61.3519 15 61.0962 13.8295 61.0962 12.5057C61.0962 11.1648 61.3548 9.98864 61.8718 8.97727C62.3945 7.96023 63.136 7.16761 64.0962 6.59943C65.0565 6.02557 66.1985 5.73864 67.5224 5.73864C68.6644 5.73864 69.6644 5.94602 70.5224 6.36079C71.3803 6.77557 72.0593 7.35795 72.5593 8.10795C73.0593 8.85795 73.3349 9.73864 73.386 10.75H69.9599C69.8633 10.0966 69.6076 9.57102 69.1928 9.1733C68.7837 8.76989 68.2468 8.56818 67.582 8.56818C67.0195 8.56818 66.5281 8.72159 66.1076 9.02841C65.6928 9.32955 65.369 9.76989 65.136 10.3494C64.9031 10.929 64.7866 11.6307 64.7866 12.4545C64.7866 13.2898 64.9002 14 65.1275 14.5852C65.3604 15.1705 65.6871 15.6165 66.1076 15.9233C66.5281 16.2301 67.0195 16.3835 67.582 16.3835C67.9968 16.3835 68.369 16.2983 68.6985 16.1278C69.0337 15.9574 69.3093 15.7102 69.5252 15.3864C69.7468 15.0568 69.8917 14.6619 69.9599 14.2017H73.386C73.3292 15.2017 73.0565 16.0824 72.5678 16.8438C72.0849 17.5994 71.4173 18.1903 70.565 18.6165C69.7127 19.0426 68.7042 19.2557 67.5394 19.2557ZM81.6765 19.2557C80.3299 19.2557 79.1708 18.983 78.1992 18.4375C77.2333 17.8864 76.489 17.108 75.9663 16.1023C75.4435 15.0909 75.1822 13.8949 75.1822 12.5142C75.1822 11.1676 75.4435 9.9858 75.9663 8.96875C76.489 7.9517 77.2248 7.15909 78.1737 6.59091C79.1282 6.02273 80.2475 5.73864 81.5316 5.73864C82.3952 5.73864 83.1992 5.87784 83.9435 6.15625C84.6935 6.42898 85.3469 6.84091 85.9038 7.39205C86.4663 7.94318 86.9038 8.63636 87.2163 9.47159C87.5288 10.3011 87.685 11.2727 87.685 12.3864V13.3835H76.631V11.1335H84.2674C84.2674 10.6108 84.1538 10.1477 83.9265 9.74432C83.6992 9.34091 83.3839 9.02557 82.9805 8.7983C82.5827 8.56534 82.1197 8.44886 81.5913 8.44886C81.0401 8.44886 80.5515 8.5767 80.1254 8.83239C79.7049 9.08239 79.3754 9.42045 79.1367 9.84659C78.8981 10.267 78.7759 10.7358 78.7702 11.2528V13.392C78.7702 14.0398 78.8896 14.5994 79.1282 15.071C79.3725 15.5426 79.7163 15.9062 80.1594 16.1619C80.6026 16.4176 81.1282 16.5455 81.7362 16.5455C82.1396 16.5455 82.5089 16.4886 82.8441 16.375C83.1793 16.2614 83.4663 16.0909 83.7049 15.8636C83.9435 15.6364 84.1254 15.358 84.2504 15.0284L87.6083 15.25C87.4379 16.0568 87.0884 16.7614 86.56 17.3636C86.0373 17.9602 85.3612 18.4261 84.5316 18.7614C83.7077 19.0909 82.756 19.2557 81.6765 19.2557ZM100.961 19.2557C99.7567 19.2557 98.717 19.0398 97.842 18.608C96.967 18.1761 96.2937 17.5909 95.8221 16.8523C95.3562 16.108 95.1232 15.2784 95.1232 14.3636C95.1232 13.6818 95.2596 13.0767 95.5323 12.5483C95.805 12.0199 96.1857 11.5341 96.6744 11.0909C97.163 10.642 97.7312 10.196 98.3789 9.75284L101.762 7.52841C102.2 7.25 102.521 6.95739 102.725 6.65057C102.93 6.33807 103.032 6 103.032 5.63636C103.032 5.28977 102.893 4.96875 102.615 4.67329C102.336 4.37784 101.941 4.23295 101.43 4.23864C101.089 4.23864 100.794 4.31534 100.544 4.46875C100.294 4.61648 100.098 4.8125 99.9556 5.05682C99.8192 5.29545 99.7511 5.5625 99.7511 5.85795C99.7511 6.22159 99.8533 6.59091 100.058 6.96591C100.262 7.34091 100.535 7.73864 100.876 8.15909C101.217 8.57386 101.589 9.02273 101.993 9.50568L110.268 19H106.484L99.5806 11.3125C99.1261 10.7955 98.6715 10.2557 98.217 9.69318C97.7681 9.125 97.3931 8.52273 97.092 7.88636C96.7908 7.24432 96.6403 6.54829 96.6403 5.79829C96.6403 4.9517 96.8363 4.19034 97.2283 3.5142C97.6261 2.83807 98.1829 2.30398 98.8988 1.91193C99.6147 1.5142 100.45 1.31534 101.404 1.31534C102.336 1.31534 103.14 1.50568 103.816 1.88636C104.498 2.26136 105.021 2.76136 105.385 3.38636C105.754 4.00568 105.939 4.6875 105.939 5.43182C105.939 6.25568 105.734 7.00284 105.325 7.6733C104.922 8.33807 104.353 8.93466 103.62 9.46307L100.058 12.0284C99.5749 12.3807 99.217 12.7415 98.984 13.1108C98.7567 13.4744 98.6431 13.8239 98.6431 14.1591C98.6431 14.5739 98.7454 14.946 98.9499 15.2756C99.1545 15.6051 99.4442 15.8665 99.8192 16.0597C100.194 16.2472 100.635 16.3409 101.14 16.3409C101.754 16.3409 102.359 16.2017 102.956 15.9233C103.558 15.6392 104.103 15.2386 104.592 14.7216C105.086 14.1989 105.481 13.5795 105.777 12.8636C106.072 12.1477 106.22 11.3551 106.22 10.4858H109.228C109.228 11.554 109.112 12.517 108.879 13.375C108.646 14.2273 108.322 14.9716 107.907 15.608C107.493 16.2386 107.018 16.7557 106.484 17.1591C106.314 17.267 106.149 17.3693 105.99 17.4659C105.831 17.5625 105.666 17.6648 105.495 17.7727C104.848 18.2955 104.123 18.6733 103.322 18.9062C102.527 19.1392 101.74 19.2557 100.961 19.2557ZM117.404 19V1.54545H124.29C125.608 1.54545 126.733 1.78125 127.665 2.25284C128.603 2.71875 129.316 3.38068 129.804 4.23864C130.299 5.09091 130.546 6.09375 130.546 7.24716C130.546 8.40625 130.296 9.40341 129.796 10.2386C129.296 11.0682 128.571 11.7045 127.623 12.1477C126.679 12.5909 125.537 12.8125 124.196 12.8125H119.586V9.84659H123.6C124.304 9.84659 124.89 9.75 125.355 9.55682C125.821 9.36364 126.168 9.07386 126.395 8.6875C126.628 8.30114 126.745 7.82102 126.745 7.24716C126.745 6.66761 126.628 6.17898 126.395 5.78125C126.168 5.38352 125.819 5.08239 125.347 4.87784C124.881 4.66761 124.293 4.5625 123.583 4.5625H121.094V19H117.404ZM126.83 11.0568L131.168 19H127.094L122.85 11.0568H126.83ZM138.841 19.2557C137.494 19.2557 136.335 18.983 135.363 18.4375C134.397 17.8864 133.653 17.108 133.13 16.1023C132.608 15.0909 132.346 13.8949 132.346 12.5142C132.346 11.1676 132.608 9.9858 133.13 8.96875C133.653 7.9517 134.389 7.15909 135.338 6.59091C136.292 6.02273 137.412 5.73864 138.696 5.73864C139.559 5.73864 140.363 5.87784 141.108 6.15625C141.858 6.42898 142.511 6.84091 143.068 7.39205C143.63 7.94318 144.068 8.63636 144.38 9.47159C144.693 10.3011 144.849 11.2727 144.849 12.3864V13.3835H133.795V11.1335H141.431C141.431 10.6108 141.318 10.1477 141.091 9.74432C140.863 9.34091 140.548 9.02557 140.145 8.7983C139.747 8.56534 139.284 8.44886 138.755 8.44886C138.204 8.44886 137.716 8.5767 137.289 8.83239C136.869 9.08239 136.539 9.42045 136.301 9.84659C136.062 10.267 135.94 10.7358 135.934 11.2528V13.392C135.934 14.0398 136.054 14.5994 136.292 15.071C136.537 15.5426 136.88 15.9062 137.324 16.1619C137.767 16.4176 138.292 16.5455 138.9 16.5455C139.304 16.5455 139.673 16.4886 140.008 16.375C140.343 16.2614 140.63 16.0909 140.869 15.8636C141.108 15.6364 141.289 15.358 141.414 15.0284L144.772 15.25C144.602 16.0568 144.252 16.7614 143.724 17.3636C143.201 17.9602 142.525 18.4261 141.696 18.7614C140.872 19.0909 139.92 19.2557 138.841 19.2557ZM147.218 23.9091V5.90909H150.798V8.10795H150.96C151.119 7.75568 151.349 7.39773 151.65 7.03409C151.957 6.66477 152.355 6.35795 152.843 6.11364C153.338 5.86364 153.951 5.73864 154.684 5.73864C155.639 5.73864 156.52 5.98864 157.326 6.48864C158.133 6.98295 158.778 7.73011 159.261 8.73011C159.744 9.72443 159.985 10.9716 159.985 12.4716C159.985 13.9318 159.75 15.1648 159.278 16.1705C158.812 17.1705 158.176 17.929 157.369 18.446C156.568 18.9574 155.67 19.2131 154.676 19.2131C153.971 19.2131 153.372 19.0966 152.877 18.8636C152.389 18.6307 151.988 18.3381 151.676 17.9858C151.363 17.6278 151.125 17.267 150.96 16.9034H150.849V23.9091H147.218ZM150.772 12.4545C150.772 13.233 150.88 13.9119 151.096 14.4915C151.312 15.071 151.625 15.5227 152.034 15.8466C152.443 16.1648 152.94 16.3239 153.525 16.3239C154.116 16.3239 154.616 16.1619 155.025 15.8381C155.434 15.5085 155.744 15.054 155.954 14.4744C156.17 13.8892 156.278 13.2159 156.278 12.4545C156.278 11.6989 156.173 11.0341 155.963 10.4602C155.752 9.88636 155.443 9.4375 155.034 9.11364C154.625 8.78977 154.122 8.62784 153.525 8.62784C152.934 8.62784 152.434 8.78409 152.025 9.09659C151.622 9.40909 151.312 9.85227 151.096 10.4261C150.88 11 150.772 11.6761 150.772 12.4545ZM166.139 19.2472C165.304 19.2472 164.559 19.1023 163.906 18.8125C163.252 18.517 162.735 18.0824 162.355 17.5085C161.98 16.929 161.792 16.2074 161.792 15.3438C161.792 14.6165 161.926 14.0057 162.193 13.5114C162.46 13.017 162.824 12.6193 163.284 12.3182C163.744 12.017 164.267 11.7898 164.852 11.6364C165.443 11.483 166.062 11.375 166.71 11.3125C167.471 11.233 168.085 11.1591 168.551 11.0909C169.017 11.017 169.355 10.9091 169.565 10.767C169.775 10.625 169.88 10.4148 169.88 10.1364V10.0852C169.88 9.54545 169.71 9.12784 169.369 8.83239C169.034 8.53693 168.556 8.3892 167.937 8.3892C167.284 8.3892 166.764 8.53409 166.377 8.82386C165.991 9.10795 165.735 9.46591 165.61 9.89773L162.252 9.625C162.423 8.82955 162.758 8.14205 163.258 7.5625C163.758 6.97727 164.403 6.52841 165.193 6.21591C165.988 5.89773 166.909 5.73864 167.954 5.73864C168.681 5.73864 169.377 5.82386 170.042 5.99432C170.713 6.16477 171.306 6.42898 171.824 6.78693C172.346 7.14489 172.758 7.60511 173.059 8.16761C173.36 8.72443 173.511 9.39205 173.511 10.1705V19H170.068V17.1847H169.966C169.755 17.5938 169.474 17.9545 169.122 18.267C168.77 18.5739 168.346 18.8153 167.852 18.9915C167.358 19.1619 166.787 19.2472 166.139 19.2472ZM167.179 16.7415C167.713 16.7415 168.184 16.6364 168.593 16.4261C169.002 16.2102 169.324 15.9205 169.556 15.5568C169.789 15.1932 169.906 14.7812 169.906 14.321V12.9318C169.792 13.0057 169.636 13.0739 169.437 13.1364C169.244 13.1932 169.025 13.2472 168.781 13.2983C168.537 13.3437 168.292 13.3864 168.048 13.4261C167.804 13.4602 167.582 13.4915 167.383 13.5199C166.957 13.5824 166.585 13.6818 166.267 13.8182C165.949 13.9545 165.701 14.1392 165.525 14.3722C165.349 14.5994 165.261 14.8835 165.261 15.2244C165.261 15.7188 165.44 16.0966 165.798 16.358C166.162 16.6136 166.622 16.7415 167.179 16.7415ZM176.328 19V5.90909H179.958V19H176.328ZM178.152 4.22159C177.612 4.22159 177.149 4.04261 176.762 3.68466C176.382 3.32102 176.191 2.88636 176.191 2.38068C176.191 1.88068 176.382 1.4517 176.762 1.09375C177.149 0.730113 177.612 0.548295 178.152 0.548295C178.691 0.548295 179.152 0.730113 179.532 1.09375C179.919 1.4517 180.112 1.88068 180.112 2.38068C180.112 2.88636 179.919 3.32102 179.532 3.68466C179.152 4.04261 178.691 4.22159 178.152 4.22159ZM182.867 19V5.90909H186.387V8.19318H186.523C186.762 7.38068 187.162 6.76705 187.725 6.35227C188.287 5.93182 188.935 5.72159 189.668 5.72159C189.85 5.72159 190.046 5.73295 190.256 5.75568C190.466 5.77841 190.651 5.80966 190.81 5.84943V9.07102C190.64 9.01989 190.404 8.97443 190.103 8.93466C189.801 8.89489 189.526 8.875 189.276 8.875C188.742 8.875 188.265 8.99148 187.844 9.22443C187.429 9.4517 187.1 9.76989 186.855 10.179C186.617 10.5881 186.498 11.0597 186.498 11.5938V19H182.867ZM203.579 9.64205L200.255 9.84659C200.199 9.5625 200.076 9.30682 199.889 9.07955C199.701 8.84659 199.454 8.66193 199.147 8.52557C198.846 8.38352 198.485 8.3125 198.065 8.3125C197.502 8.3125 197.028 8.43182 196.642 8.67045C196.255 8.90341 196.062 9.21591 196.062 9.60795C196.062 9.92045 196.187 10.1847 196.437 10.4006C196.687 10.6165 197.116 10.7898 197.724 10.9205L200.093 11.3977C201.366 11.6591 202.315 12.0795 202.94 12.6591C203.565 13.2386 203.877 14 203.877 14.9432C203.877 15.8011 203.625 16.554 203.119 17.2017C202.619 17.8494 201.931 18.3551 201.056 18.7188C200.187 19.0767 199.184 19.2557 198.048 19.2557C196.315 19.2557 194.934 18.8949 193.906 18.1733C192.883 17.446 192.284 16.4574 192.108 15.2074L195.679 15.0199C195.787 15.5483 196.048 15.9517 196.463 16.2301C196.877 16.5028 197.409 16.6392 198.056 16.6392C198.693 16.6392 199.204 16.517 199.591 16.2727C199.983 16.0227 200.181 15.7017 200.187 15.3097C200.181 14.9801 200.042 14.7102 199.77 14.5C199.497 14.2841 199.076 14.1193 198.508 14.0057L196.241 13.554C194.963 13.2983 194.011 12.8551 193.386 12.2244C192.767 11.5937 192.457 10.7898 192.457 9.8125C192.457 8.97159 192.684 8.24716 193.139 7.6392C193.599 7.03125 194.244 6.5625 195.074 6.23295C195.909 5.90341 196.886 5.73864 198.005 5.73864C199.659 5.73864 200.96 6.08807 201.909 6.78693C202.863 7.4858 203.42 8.4375 203.579 9.64205Z" fill="white"/>
</svg>
